<svg width="1370" height="799" viewBox="0 0 1370 799" fill="none" xmlns="http://www.w3.org/2000/svg">
<g clip-path="url(#clip0_1955_16050)">
<mask id="mask0_1955_16050" style="mask-type:alpha" maskUnits="userSpaceOnUse" x="160" y="-96" width="508" height="512">
<path d="M405.387 315.973L568.77 151.296C579.613 140.392 594.304 134.268 609.621 134.268C624.937 134.268 639.629 140.392 650.471 151.296C661.29 162.224 667.365 177.032 667.365 192.47C667.365 207.909 661.29 222.716 650.471 233.645L487.089 398.323C476.246 409.227 461.555 415.351 446.238 415.351C430.921 415.351 416.23 409.227 405.387 398.323C394.569 387.394 388.494 372.586 388.494 357.148C388.494 341.71 394.569 326.902 405.387 315.973ZM177.312 168.439C188.154 179.336 202.84 185.456 218.152 185.456C233.463 185.456 248.15 179.336 258.992 168.439L422.396 3.73973C433.208 -7.1883 439.279 -21.9915 439.279 -37.4243C439.279 -52.8572 433.208 -67.6604 422.396 -78.5884C411.553 -89.4923 396.862 -95.616 381.545 -95.616C366.228 -95.616 351.537 -89.4923 340.694 -78.5884L177.312 86.0894C166.493 97.0184 160.418 111.826 160.418 127.264C160.418 142.702 166.493 157.51 177.312 168.439ZM352.583 221.597C363.426 232.501 378.117 238.625 393.434 238.625C408.751 238.625 423.442 232.501 434.285 221.597L475.136 180.422C485.954 169.493 492.029 154.686 492.029 139.248C492.029 123.809 485.954 109.002 475.136 98.0727C464.293 87.1688 449.602 81.0451 434.285 81.0451C418.968 81.0451 404.277 87.1688 393.434 98.0727L352.583 139.248C341.765 150.176 335.689 164.984 335.689 180.422C335.689 195.861 341.765 210.668 352.583 221.597Z" fill="url(#paint0_linear_1955_16050)"/>
</mask>
<g mask="url(#mask0_1955_16050)">
<rect width="3.44043" height="550.595" rx="1.72021" transform="matrix(0.7064 -0.707813 0.7064 0.707813 297.988 -69.3174)" fill="#5225B0" fill-opacity="0.3"/>
<rect width="3.44043" height="550.595" rx="1.72021" transform="matrix(0.7064 -0.707813 0.7064 0.707813 94.3633 134.715)" fill="#5225B0" fill-opacity="0.3"/>
<rect width="3.44043" height="550.595" rx="1.72021" transform="matrix(0.7064 -0.707813 0.7064 0.707813 290.719 -62.0308)" fill="#5225B0" fill-opacity="0.3"/>
<rect width="3.44043" height="550.595" rx="1.72021" transform="matrix(0.7064 -0.707813 0.7064 0.707813 87.0938 142.002)" fill="#5225B0" fill-opacity="0.3"/>
<rect width="3.44043" height="550.595" rx="1.72021" transform="matrix(0.7064 -0.707813 0.7064 0.707813 283.445 -54.7437)" fill="#5225B0" fill-opacity="0.3"/>
<rect width="3.44043" height="550.595" rx="1.72021" transform="matrix(0.7064 -0.707813 0.7064 0.707813 79.8203 149.289)" fill="#5225B0" fill-opacity="0.3"/>
<rect width="3.44043" height="550.595" rx="1.72021" transform="matrix(0.7064 -0.707813 0.7064 0.707813 276.172 -47.457)" fill="#5225B0" fill-opacity="0.3"/>
<rect width="3.44043" height="550.595" rx="1.72021" transform="matrix(0.7064 -0.707813 0.7064 0.707813 72.5469 156.576)" fill="#5225B0" fill-opacity="0.3"/>
<rect width="3.44043" height="550.595" rx="1.72021" transform="matrix(0.7064 -0.707813 0.7064 0.707813 268.898 -40.1702)" fill="#5225B0" fill-opacity="0.3"/>
<rect width="3.44043" height="550.595" rx="1.72021" transform="matrix(0.7064 -0.707813 0.7064 0.707813 65.2734 163.863)" fill="#5225B0" fill-opacity="0.3"/>
<rect width="3.44043" height="550.595" rx="1.72021" transform="matrix(0.7064 -0.707813 0.7064 0.707813 261.629 -32.8833)" fill="#5225B0" fill-opacity="0.3"/>
<rect width="3.44043" height="550.595" rx="1.72021" transform="matrix(0.7064 -0.707813 0.7064 0.707813 58.0039 171.15)" fill="#5225B0" fill-opacity="0.3"/>
<rect width="3.44043" height="550.595" rx="1.72021" transform="matrix(0.7064 -0.707813 0.7064 0.707813 254.355 -25.5962)" fill="#5225B0" fill-opacity="0.3"/>
<rect width="3.44043" height="550.595" rx="1.72021" transform="matrix(0.7064 -0.707813 0.7064 0.707813 50.7305 178.437)" fill="#5225B0" fill-opacity="0.3"/>
<rect width="3.44043" height="550.595" rx="1.72021" transform="matrix(0.7064 -0.707813 0.7064 0.707813 247.082 -18.3096)" fill="#5225B0" fill-opacity="0.3"/>
<rect width="3.44043" height="550.595" rx="1.72021" transform="matrix(0.7064 -0.707813 0.7064 0.707813 43.457 185.723)" fill="#5225B0" fill-opacity="0.3"/>
<rect width="3.44043" height="550.595" rx="1.72021" transform="matrix(0.7064 -0.707813 0.7064 0.707813 239.812 -11.0225)" fill="#5225B0" fill-opacity="0.3"/>
<rect width="3.44043" height="550.595" rx="1.72021" transform="matrix(0.7064 -0.707813 0.7064 0.707813 36.1836 193.01)" fill="#5225B0" fill-opacity="0.3"/>
<rect width="3.44043" height="550.595" rx="1.72021" transform="matrix(0.7064 -0.707813 0.7064 0.707813 232.539 -3.7356)" fill="#5225B0" fill-opacity="0.3"/>
<rect width="3.44043" height="550.595" rx="1.72021" transform="matrix(0.7064 -0.707813 0.7064 0.707813 28.9141 200.297)" fill="#5225B0" fill-opacity="0.3"/>
<rect width="3.44043" height="550.595" rx="1.72021" transform="matrix(0.7064 -0.707813 0.7064 0.707813 225.266 3.55127)" fill="#5225B0" fill-opacity="0.3"/>
<rect width="3.44043" height="550.595" rx="1.72021" transform="matrix(0.7064 -0.707813 0.7064 0.707813 21.6406 207.584)" fill="#5225B0" fill-opacity="0.3"/>
<rect width="3.44043" height="550.595" rx="1.72021" transform="matrix(0.7064 -0.707813 0.7064 0.707813 217.992 10.838)" fill="#5225B0" fill-opacity="0.3"/>
<rect width="3.44043" height="550.595" rx="1.72021" transform="matrix(0.7064 -0.707813 0.7064 0.707813 14.3672 214.871)" fill="#5225B0" fill-opacity="0.3"/>
<rect width="3.44043" height="550.595" rx="1.72021" transform="matrix(0.7064 -0.707813 0.7064 0.707813 210.723 18.125)" fill="#5225B0" fill-opacity="0.3"/>
<rect width="3.44043" height="550.595" rx="1.72021" transform="matrix(0.7064 -0.707813 0.7064 0.707813 7.09766 222.158)" fill="#5225B0" fill-opacity="0.3"/>
<rect width="3.44043" height="550.595" rx="1.72021" transform="matrix(0.7064 -0.707813 0.7064 0.707813 203.449 25.4117)" fill="#5225B0" fill-opacity="0.3"/>
<rect width="3.44043" height="550.595" rx="1.72021" transform="matrix(0.7064 -0.707813 0.7064 0.707813 -0.175781 229.445)" fill="#5225B0" fill-opacity="0.3"/>
<rect width="3.44043" height="550.595" rx="1.72021" transform="matrix(0.7064 -0.707813 0.7064 0.707813 196.176 32.6986)" fill="#5225B0" fill-opacity="0.3"/>
<rect width="3.44043" height="550.595" rx="1.72021" transform="matrix(0.7064 -0.707813 0.7064 0.707813 -7.44922 236.731)" fill="#5225B0" fill-opacity="0.3"/>
<rect width="3.44043" height="550.595" rx="1.72021" transform="matrix(0.7064 -0.707813 0.7064 0.707813 188.902 39.9857)" fill="#5225B0" fill-opacity="0.3"/>
<rect width="3.44043" height="550.595" rx="1.72021" transform="matrix(0.7064 -0.707813 0.7064 0.707813 -14.7188 244.018)" fill="#5225B0" fill-opacity="0.3"/>
<rect width="3.44043" height="550.595" rx="1.72021" transform="matrix(0.7064 -0.707813 0.7064 0.707813 181.633 47.2727)" fill="#5225B0" fill-opacity="0.3"/>
<rect width="3.44043" height="550.595" rx="1.72021" transform="matrix(0.7064 -0.707813 0.7064 0.707813 -21.9922 251.305)" fill="#5225B0" fill-opacity="0.3"/>
<rect width="3.44043" height="550.595" rx="1.72021" transform="matrix(0.7064 -0.707813 0.7064 0.707813 174.359 54.5594)" fill="#5225B0" fill-opacity="0.3"/>
<rect width="3.44043" height="550.595" rx="1.72021" transform="matrix(0.7064 -0.707813 0.7064 0.707813 -29.2656 258.592)" fill="#5225B0" fill-opacity="0.3"/>
<rect width="3.44043" height="550.595" rx="1.72021" transform="matrix(0.7064 -0.707813 0.7064 0.707813 167.086 61.8462)" fill="#5225B0" fill-opacity="0.3"/>
<rect width="3.44043" height="550.595" rx="1.72021" transform="matrix(0.7064 -0.707813 0.7064 0.707813 -36.5391 265.879)" fill="#5225B0" fill-opacity="0.3"/>
<rect width="3.44043" height="550.595" rx="1.72021" transform="matrix(0.7064 -0.707813 0.7064 0.707813 305.262 -76.6045)" fill="#5225B0" fill-opacity="0.3"/>
<rect width="3.44043" height="550.595" rx="1.72021" transform="matrix(0.7064 -0.707813 0.7064 0.707813 101.637 127.428)" fill="#5225B0" fill-opacity="0.3"/>
<rect width="3.44043" height="550.595" rx="1.72021" transform="matrix(0.7064 -0.707813 0.7064 0.707813 312.535 -83.8914)" fill="#5225B0" fill-opacity="0.3"/>
<rect width="3.44043" height="550.595" rx="1.72021" transform="matrix(0.7064 -0.707813 0.7064 0.707813 108.906 120.141)" fill="#5225B0" fill-opacity="0.3"/>
<rect width="3.44043" height="550.595" rx="1.72021" transform="matrix(0.7064 -0.707813 0.7064 0.707813 319.805 -91.1782)" fill="#5225B0" fill-opacity="0.3"/>
<rect width="3.44043" height="550.595" rx="1.72021" transform="matrix(0.7064 -0.707813 0.7064 0.707813 116.18 112.854)" fill="#5225B0" fill-opacity="0.3"/>
<rect width="3.44043" height="550.595" rx="1.72021" transform="matrix(0.7064 -0.707813 0.7064 0.707813 327.078 -98.4653)" fill="#5225B0" fill-opacity="0.3"/>
<rect width="3.44043" height="550.595" rx="1.72021" transform="matrix(0.7064 -0.707813 0.7064 0.707813 123.453 105.568)" fill="#5225B0" fill-opacity="0.3"/>
<rect width="3.44043" height="550.595" rx="1.72021" transform="matrix(0.7064 -0.707813 0.7064 0.707813 334.352 -105.752)" fill="#5225B0" fill-opacity="0.3"/>
<rect width="3.44043" height="550.595" rx="1.72021" transform="matrix(0.7064 -0.707813 0.7064 0.707813 130.727 98.281)" fill="#5225B0" fill-opacity="0.3"/>
<rect width="3.44043" height="550.595" rx="1.72021" transform="matrix(0.7064 -0.707813 0.7064 0.707813 341.621 -113.039)" fill="#5225B0" fill-opacity="0.3"/>
<rect width="3.44043" height="550.595" rx="1.72021" transform="matrix(0.7064 -0.707813 0.7064 0.707813 137.996 90.9939)" fill="#5225B0" fill-opacity="0.3"/>
<rect width="3.44043" height="550.595" rx="1.72021" transform="matrix(0.7064 -0.707813 0.7064 0.707813 348.895 -120.326)" fill="#5225B0" fill-opacity="0.3"/>
<rect width="3.44043" height="550.595" rx="1.72021" transform="matrix(0.7064 -0.707813 0.7064 0.707813 145.27 83.7069)" fill="#5225B0" fill-opacity="0.3"/>
<rect width="3.44043" height="550.595" rx="1.72021" transform="matrix(0.7064 -0.707813 0.7064 0.707813 356.168 -127.613)" fill="#5225B0" fill-opacity="0.3"/>
<rect width="3.44043" height="550.595" rx="1.72021" transform="matrix(0.7064 -0.707813 0.7064 0.707813 152.543 76.4199)" fill="#5225B0" fill-opacity="0.3"/>
<rect width="3.44043" height="550.595" rx="1.72021" transform="matrix(0.7064 -0.707813 0.7064 0.707813 363.438 -134.899)" fill="#5225B0" fill-opacity="0.3"/>
<rect width="3.44043" height="550.595" rx="1.72021" transform="matrix(0.7064 -0.707813 0.7064 0.707813 159.812 69.1332)" fill="#5225B0" fill-opacity="0.3"/>
</g>
<mask id="mask1_1955_16050" style="mask-type:alpha" maskUnits="userSpaceOnUse" x="429" y="315" width="508" height="512">
<path d="M674.602 727.105L837.984 562.427C848.827 551.523 863.519 545.399 878.835 545.399C894.152 545.399 908.843 551.523 919.686 562.427C930.504 573.356 936.58 588.164 936.58 603.602C936.58 619.04 930.504 633.848 919.686 644.777L756.304 809.455C745.461 820.358 730.77 826.482 715.453 826.482C700.136 826.482 685.445 820.358 674.602 809.455C663.784 798.526 657.708 783.718 657.708 768.28C657.708 752.841 663.784 738.034 674.602 727.105ZM446.526 579.571C457.368 590.468 472.055 596.587 487.367 596.587C502.678 596.587 517.365 590.468 528.207 579.571L691.611 414.871C702.422 403.943 708.494 389.14 708.494 373.707C708.494 358.274 702.422 343.471 691.611 332.543C680.768 321.639 666.076 315.515 650.76 315.515C635.443 315.515 620.752 321.639 609.909 332.543L446.526 497.221C435.708 508.15 429.633 522.958 429.633 538.396C429.633 553.834 435.708 568.642 446.526 579.571ZM621.798 632.729C632.641 643.633 647.332 649.756 662.649 649.756C677.965 649.756 692.657 643.633 703.5 632.729L744.351 591.554C755.169 580.625 761.244 565.817 761.244 550.379C761.244 534.941 755.169 520.133 744.351 509.204C733.508 498.3 718.816 492.176 703.5 492.176C688.183 492.176 673.492 498.3 662.649 509.204L621.798 550.379C610.98 561.308 604.904 576.116 604.904 591.554C604.904 606.992 610.98 621.8 621.798 632.729Z" fill="url(#paint1_linear_1955_16050)"/>
</mask>
<g mask="url(#mask1_1955_16050)">
<rect width="3.44043" height="550.595" rx="1.72021" transform="matrix(0.7064 -0.707813 0.7064 0.707813 567.207 341.814)" fill="#5225B0" fill-opacity="0.3"/>
<rect width="3.44043" height="550.595" rx="1.72021" transform="matrix(0.7064 -0.707813 0.7064 0.707813 363.582 545.847)" fill="#5225B0" fill-opacity="0.3"/>
<rect width="3.44043" height="550.595" rx="1.72021" transform="matrix(0.7064 -0.707813 0.7064 0.707813 559.938 349.101)" fill="#5225B0" fill-opacity="0.3"/>
<rect width="3.44043" height="550.595" rx="1.72021" transform="matrix(0.7064 -0.707813 0.7064 0.707813 356.312 553.134)" fill="#5225B0" fill-opacity="0.3"/>
<rect width="3.44043" height="550.595" rx="1.72021" transform="matrix(0.7064 -0.707813 0.7064 0.707813 552.664 356.388)" fill="#5225B0" fill-opacity="0.3"/>
<rect width="3.44043" height="550.595" rx="1.72021" transform="matrix(0.7064 -0.707813 0.7064 0.707813 349.039 560.42)" fill="#5225B0" fill-opacity="0.3"/>
<rect width="3.44043" height="550.595" rx="1.72021" transform="matrix(0.7064 -0.707813 0.7064 0.707813 545.391 363.674)" fill="#5225B0" fill-opacity="0.3"/>
<rect width="3.44043" height="550.595" rx="1.72021" transform="matrix(0.7064 -0.707813 0.7064 0.707813 341.766 567.707)" fill="#5225B0" fill-opacity="0.3"/>
<rect width="3.44043" height="550.595" rx="1.72021" transform="matrix(0.7064 -0.707813 0.7064 0.707813 538.117 370.961)" fill="#5225B0" fill-opacity="0.3"/>
<rect width="3.44043" height="550.595" rx="1.72021" transform="matrix(0.7064 -0.707813 0.7064 0.707813 334.492 574.994)" fill="#5225B0" fill-opacity="0.3"/>
<rect width="3.44043" height="550.595" rx="1.72021" transform="matrix(0.7064 -0.707813 0.7064 0.707813 530.848 378.248)" fill="#5225B0" fill-opacity="0.3"/>
<rect width="3.44043" height="550.595" rx="1.72021" transform="matrix(0.7064 -0.707813 0.7064 0.707813 327.223 582.281)" fill="#5225B0" fill-opacity="0.3"/>
<rect width="3.44043" height="550.595" rx="1.72021" transform="matrix(0.7064 -0.707813 0.7064 0.707813 523.574 385.535)" fill="#5225B0" fill-opacity="0.3"/>
<rect width="3.44043" height="550.595" rx="1.72021" transform="matrix(0.7064 -0.707813 0.7064 0.707813 319.949 589.568)" fill="#5225B0" fill-opacity="0.3"/>
<rect width="3.44043" height="550.595" rx="1.72021" transform="matrix(0.7064 -0.707813 0.7064 0.707813 516.301 392.822)" fill="#5225B0" fill-opacity="0.3"/>
<rect width="3.44043" height="550.595" rx="1.72021" transform="matrix(0.7064 -0.707813 0.7064 0.707813 312.676 596.855)" fill="#5225B0" fill-opacity="0.3"/>
<rect width="3.44043" height="550.595" rx="1.72021" transform="matrix(0.7064 -0.707813 0.7064 0.707813 509.031 400.109)" fill="#5225B0" fill-opacity="0.3"/>
<rect width="3.44043" height="550.595" rx="1.72021" transform="matrix(0.7064 -0.707813 0.7064 0.707813 305.402 604.142)" fill="#5225B0" fill-opacity="0.3"/>
<rect width="3.44043" height="550.595" rx="1.72021" transform="matrix(0.7064 -0.707813 0.7064 0.707813 501.758 407.396)" fill="#5225B0" fill-opacity="0.3"/>
<rect width="3.44043" height="550.595" rx="1.72021" transform="matrix(0.7064 -0.707813 0.7064 0.707813 298.133 611.429)" fill="#5225B0" fill-opacity="0.3"/>
<rect width="3.44043" height="550.595" rx="1.72021" transform="matrix(0.7064 -0.707813 0.7064 0.707813 494.484 414.683)" fill="#5225B0" fill-opacity="0.3"/>
<rect width="3.44043" height="550.595" rx="1.72021" transform="matrix(0.7064 -0.707813 0.7064 0.707813 290.859 618.716)" fill="#5225B0" fill-opacity="0.3"/>
<rect width="3.44043" height="550.595" rx="1.72021" transform="matrix(0.7064 -0.707813 0.7064 0.707813 487.211 421.97)" fill="#5225B0" fill-opacity="0.3"/>
<rect width="3.44043" height="550.595" rx="1.72021" transform="matrix(0.7064 -0.707813 0.7064 0.707813 283.586 626.003)" fill="#5225B0" fill-opacity="0.3"/>
<rect width="3.44043" height="550.595" rx="1.72021" transform="matrix(0.7064 -0.707813 0.7064 0.707813 479.941 429.257)" fill="#5225B0" fill-opacity="0.3"/>
<rect width="3.44043" height="550.595" rx="1.72021" transform="matrix(0.7064 -0.707813 0.7064 0.707813 276.316 633.289)" fill="#5225B0" fill-opacity="0.3"/>
<rect width="3.44043" height="550.595" rx="1.72021" transform="matrix(0.7064 -0.707813 0.7064 0.707813 472.668 436.543)" fill="#5225B0" fill-opacity="0.3"/>
<rect width="3.44043" height="550.595" rx="1.72021" transform="matrix(0.7064 -0.707813 0.7064 0.707813 269.043 640.576)" fill="#5225B0" fill-opacity="0.3"/>
<rect width="3.44043" height="550.595" rx="1.72021" transform="matrix(0.7064 -0.707813 0.7064 0.707813 465.395 443.83)" fill="#5225B0" fill-opacity="0.3"/>
<rect width="3.44043" height="550.595" rx="1.72021" transform="matrix(0.7064 -0.707813 0.7064 0.707813 261.77 647.863)" fill="#5225B0" fill-opacity="0.3"/>
<rect width="3.44043" height="550.595" rx="1.72021" transform="matrix(0.7064 -0.707813 0.7064 0.707813 458.121 451.117)" fill="#5225B0" fill-opacity="0.3"/>
<rect width="3.44043" height="550.595" rx="1.72021" transform="matrix(0.7064 -0.707813 0.7064 0.707813 254.5 655.15)" fill="#5225B0" fill-opacity="0.3"/>
<rect width="3.44043" height="550.595" rx="1.72021" transform="matrix(0.7064 -0.707813 0.7064 0.707813 450.852 458.404)" fill="#5225B0" fill-opacity="0.3"/>
<rect width="3.44043" height="550.595" rx="1.72021" transform="matrix(0.7064 -0.707813 0.7064 0.707813 247.227 662.437)" fill="#5225B0" fill-opacity="0.3"/>
<rect width="3.44043" height="550.595" rx="1.72021" transform="matrix(0.7064 -0.707813 0.7064 0.707813 443.578 465.691)" fill="#5225B0" fill-opacity="0.3"/>
<rect width="3.44043" height="550.595" rx="1.72021" transform="matrix(0.7064 -0.707813 0.7064 0.707813 239.953 669.724)" fill="#5225B0" fill-opacity="0.3"/>
<rect width="3.44043" height="550.595" rx="1.72021" transform="matrix(0.7064 -0.707813 0.7064 0.707813 436.305 472.978)" fill="#5225B0" fill-opacity="0.3"/>
<rect width="3.44043" height="550.595" rx="1.72021" transform="matrix(0.7064 -0.707813 0.7064 0.707813 232.68 677.011)" fill="#5225B0" fill-opacity="0.3"/>
<rect width="3.44043" height="550.595" rx="1.72021" transform="matrix(0.7064 -0.707813 0.7064 0.707813 574.48 334.527)" fill="#5225B0" fill-opacity="0.3"/>
<rect width="3.44043" height="550.595" rx="1.72021" transform="matrix(0.7064 -0.707813 0.7064 0.707813 370.855 538.56)" fill="#5225B0" fill-opacity="0.3"/>
<rect width="3.44043" height="550.595" rx="1.72021" transform="matrix(0.7064 -0.707813 0.7064 0.707813 581.754 327.24)" fill="#5225B0" fill-opacity="0.3"/>
<rect width="3.44043" height="550.595" rx="1.72021" transform="matrix(0.7064 -0.707813 0.7064 0.707813 378.125 531.273)" fill="#5225B0" fill-opacity="0.3"/>
<rect width="3.44043" height="550.595" rx="1.72021" transform="matrix(0.7064 -0.707813 0.7064 0.707813 589.023 319.953)" fill="#5225B0" fill-opacity="0.3"/>
<rect width="3.44043" height="550.595" rx="1.72021" transform="matrix(0.7064 -0.707813 0.7064 0.707813 385.398 523.986)" fill="#5225B0" fill-opacity="0.3"/>
<rect width="3.44043" height="550.595" rx="1.72021" transform="matrix(0.7064 -0.707813 0.7064 0.707813 596.297 312.666)" fill="#5225B0" fill-opacity="0.3"/>
<rect width="3.44043" height="550.595" rx="1.72021" transform="matrix(0.7064 -0.707813 0.7064 0.707813 392.672 516.699)" fill="#5225B0" fill-opacity="0.3"/>
<rect width="3.44043" height="550.595" rx="1.72021" transform="matrix(0.7064 -0.707813 0.7064 0.707813 603.57 305.38)" fill="#5225B0" fill-opacity="0.3"/>
<rect width="3.44043" height="550.595" rx="1.72021" transform="matrix(0.7064 -0.707813 0.7064 0.707813 399.945 509.412)" fill="#5225B0" fill-opacity="0.3"/>
<rect width="3.44043" height="550.595" rx="1.72021" transform="matrix(0.7064 -0.707813 0.7064 0.707813 610.84 298.093)" fill="#5225B0" fill-opacity="0.3"/>
<rect width="3.44043" height="550.595" rx="1.72021" transform="matrix(0.7064 -0.707813 0.7064 0.707813 407.215 502.125)" fill="#5225B0" fill-opacity="0.3"/>
<rect width="3.44043" height="550.595" rx="1.72021" transform="matrix(0.7064 -0.707813 0.7064 0.707813 618.113 290.806)" fill="#5225B0" fill-opacity="0.3"/>
<rect width="3.44043" height="550.595" rx="1.72021" transform="matrix(0.7064 -0.707813 0.7064 0.707813 414.488 494.839)" fill="#5225B0" fill-opacity="0.3"/>
<rect width="3.44043" height="550.595" rx="1.72021" transform="matrix(0.7064 -0.707813 0.7064 0.707813 625.387 283.519)" fill="#5225B0" fill-opacity="0.3"/>
<rect width="3.44043" height="550.595" rx="1.72021" transform="matrix(0.7064 -0.707813 0.7064 0.707813 421.762 487.552)" fill="#5225B0" fill-opacity="0.3"/>
<rect width="3.44043" height="550.595" rx="1.72021" transform="matrix(0.7064 -0.707813 0.7064 0.707813 632.656 276.232)" fill="#5225B0" fill-opacity="0.3"/>
<rect width="3.44043" height="550.595" rx="1.72021" transform="matrix(0.7064 -0.707813 0.7064 0.707813 429.031 480.265)" fill="#5225B0" fill-opacity="0.3"/>
</g>
<mask id="mask2_1955_16050" style="mask-type:alpha" maskUnits="userSpaceOnUse" x="487" y="-182" width="508" height="512">
<path d="M732.485 230.177L895.867 65.4992C906.71 54.5953 921.401 48.4716 936.718 48.4716C952.035 48.4716 966.726 54.5953 977.569 65.4992C988.387 76.4281 994.463 91.2359 994.463 106.674C994.463 122.112 988.387 136.92 977.569 147.849L814.187 312.527C803.344 323.431 788.653 329.554 773.336 329.554C758.019 329.554 743.328 323.431 732.485 312.527C721.667 301.598 715.591 286.79 715.591 271.352C715.591 255.914 721.667 241.106 732.485 230.177ZM504.409 82.6428C515.251 93.5401 529.938 99.6596 545.249 99.6596C560.561 99.6596 575.248 93.5401 586.09 82.6428L749.494 -82.0567C760.305 -92.9847 766.376 -107.788 766.376 -123.221C766.376 -138.654 760.305 -153.457 749.494 -164.385C738.651 -175.289 723.959 -181.412 708.643 -181.412C693.326 -181.412 678.635 -175.289 667.792 -164.385L504.409 0.29306C493.591 11.222 487.516 26.0298 487.516 41.4679C487.516 56.9061 493.591 71.7139 504.409 82.6428ZM679.681 135.801C690.524 146.705 705.215 152.828 720.532 152.828C735.848 152.828 750.54 146.705 761.383 135.801L802.233 94.626C813.052 83.6971 819.127 68.8893 819.127 53.4512C819.127 38.013 813.052 23.2052 802.233 12.2763C791.391 1.37241 776.699 -4.75127 761.383 -4.75127C746.066 -4.75127 731.375 1.37241 720.532 12.2763L679.681 53.4512C668.862 64.3801 662.787 79.1879 662.787 94.626C662.787 110.064 668.862 124.872 679.681 135.801Z" fill="url(#paint2_linear_1955_16050)"/>
</mask>
<g mask="url(#mask2_1955_16050)">
<rect width="3.44043" height="550.595" rx="1.72021" transform="matrix(0.7064 -0.707813 0.7064 0.707813 625.09 -155.114)" fill="#5225B0" fill-opacity="0.3"/>
<rect width="3.44043" height="550.595" rx="1.72021" transform="matrix(0.7064 -0.707813 0.7064 0.707813 421.465 48.9191)" fill="#5225B0" fill-opacity="0.3"/>
<rect width="3.44043" height="550.595" rx="1.72021" transform="matrix(0.7064 -0.707813 0.7064 0.707813 617.82 -147.827)" fill="#5225B0" fill-opacity="0.3"/>
<rect width="3.44043" height="550.595" rx="1.72021" transform="matrix(0.7064 -0.707813 0.7064 0.707813 414.195 56.2059)" fill="#5225B0" fill-opacity="0.3"/>
<rect width="3.44043" height="550.595" rx="1.72021" transform="matrix(0.7064 -0.707813 0.7064 0.707813 610.547 -140.54)" fill="#5225B0" fill-opacity="0.3"/>
<rect width="3.44043" height="550.595" rx="1.72021" transform="matrix(0.7064 -0.707813 0.7064 0.707813 406.922 63.4928)" fill="#5225B0" fill-opacity="0.3"/>
<rect width="3.44043" height="550.595" rx="1.72021" transform="matrix(0.7064 -0.707813 0.7064 0.707813 603.273 -133.253)" fill="#5225B0" fill-opacity="0.3"/>
<rect width="3.44043" height="550.595" rx="1.72021" transform="matrix(0.7064 -0.707813 0.7064 0.707813 399.648 70.7797)" fill="#5225B0" fill-opacity="0.3"/>
<rect width="3.44043" height="550.595" rx="1.72021" transform="matrix(0.7064 -0.707813 0.7064 0.707813 596 -125.966)" fill="#5225B0" fill-opacity="0.3"/>
<rect width="3.44043" height="550.595" rx="1.72021" transform="matrix(0.7064 -0.707813 0.7064 0.707813 392.375 78.0667)" fill="#5225B0" fill-opacity="0.3"/>
<rect width="3.44043" height="550.595" rx="1.72021" transform="matrix(0.7064 -0.707813 0.7064 0.707813 588.73 -118.679)" fill="#5225B0" fill-opacity="0.3"/>
<rect width="3.44043" height="550.595" rx="1.72021" transform="matrix(0.7064 -0.707813 0.7064 0.707813 385.105 85.3535)" fill="#5225B0" fill-opacity="0.3"/>
<rect width="3.44043" height="550.595" rx="1.72021" transform="matrix(0.7064 -0.707813 0.7064 0.707813 581.457 -111.392)" fill="#5225B0" fill-opacity="0.3"/>
<rect width="3.44043" height="550.595" rx="1.72021" transform="matrix(0.7064 -0.707813 0.7064 0.707813 377.832 92.6404)" fill="#5225B0" fill-opacity="0.3"/>
<rect width="3.44043" height="550.595" rx="1.72021" transform="matrix(0.7064 -0.707813 0.7064 0.707813 574.184 -104.105)" fill="#5225B0" fill-opacity="0.3"/>
<rect width="3.44043" height="550.595" rx="1.72021" transform="matrix(0.7064 -0.707813 0.7064 0.707813 370.559 99.9272)" fill="#5225B0" fill-opacity="0.3"/>
<rect width="3.44043" height="550.595" rx="1.72021" transform="matrix(0.7064 -0.707813 0.7064 0.707813 566.914 -96.8186)" fill="#5225B0" fill-opacity="0.3"/>
<rect width="3.44043" height="550.595" rx="1.72021" transform="matrix(0.7064 -0.707813 0.7064 0.707813 363.285 107.214)" fill="#5225B0" fill-opacity="0.3"/>
<rect width="3.44043" height="550.595" rx="1.72021" transform="matrix(0.7064 -0.707813 0.7064 0.707813 559.641 -89.5315)" fill="#5225B0" fill-opacity="0.3"/>
<rect width="3.44043" height="550.595" rx="1.72021" transform="matrix(0.7064 -0.707813 0.7064 0.707813 356.016 114.501)" fill="#5225B0" fill-opacity="0.3"/>
<rect width="3.44043" height="550.595" rx="1.72021" transform="matrix(0.7064 -0.707813 0.7064 0.707813 552.367 -82.2449)" fill="#5225B0" fill-opacity="0.3"/>
<rect width="3.44043" height="550.595" rx="1.72021" transform="matrix(0.7064 -0.707813 0.7064 0.707813 348.742 121.788)" fill="#5225B0" fill-opacity="0.3"/>
<rect width="3.44043" height="550.595" rx="1.72021" transform="matrix(0.7064 -0.707813 0.7064 0.707813 545.094 -74.958)" fill="#5225B0" fill-opacity="0.3"/>
<rect width="3.44043" height="550.595" rx="1.72021" transform="matrix(0.7064 -0.707813 0.7064 0.707813 341.469 129.075)" fill="#5225B0" fill-opacity="0.3"/>
<rect width="3.44043" height="550.595" rx="1.72021" transform="matrix(0.7064 -0.707813 0.7064 0.707813 537.824 -67.6711)" fill="#5225B0" fill-opacity="0.3"/>
<rect width="3.44043" height="550.595" rx="1.72021" transform="matrix(0.7064 -0.707813 0.7064 0.707813 334.199 136.362)" fill="#5225B0" fill-opacity="0.3"/>
<rect width="3.44043" height="550.595" rx="1.72021" transform="matrix(0.7064 -0.707813 0.7064 0.707813 530.551 -60.3843)" fill="#5225B0" fill-opacity="0.3"/>
<rect width="3.44043" height="550.595" rx="1.72021" transform="matrix(0.7064 -0.707813 0.7064 0.707813 326.926 143.649)" fill="#5225B0" fill-opacity="0.3"/>
<rect width="3.44043" height="550.595" rx="1.72021" transform="matrix(0.7064 -0.707813 0.7064 0.707813 523.277 -53.0974)" fill="#5225B0" fill-opacity="0.3"/>
<rect width="3.44043" height="550.595" rx="1.72021" transform="matrix(0.7064 -0.707813 0.7064 0.707813 319.652 150.935)" fill="#5225B0" fill-opacity="0.3"/>
<rect width="3.44043" height="550.595" rx="1.72021" transform="matrix(0.7064 -0.707813 0.7064 0.707813 516.004 -45.8103)" fill="#5225B0" fill-opacity="0.3"/>
<rect width="3.44043" height="550.595" rx="1.72021" transform="matrix(0.7064 -0.707813 0.7064 0.707813 312.383 158.222)" fill="#5225B0" fill-opacity="0.3"/>
<rect width="3.44043" height="550.595" rx="1.72021" transform="matrix(0.7064 -0.707813 0.7064 0.707813 508.734 -38.5234)" fill="#5225B0" fill-opacity="0.3"/>
<rect width="3.44043" height="550.595" rx="1.72021" transform="matrix(0.7064 -0.707813 0.7064 0.707813 305.109 165.509)" fill="#5225B0" fill-opacity="0.3"/>
<rect width="3.44043" height="550.595" rx="1.72021" transform="matrix(0.7064 -0.707813 0.7064 0.707813 501.461 -31.2366)" fill="#5225B0" fill-opacity="0.3"/>
<rect width="3.44043" height="550.595" rx="1.72021" transform="matrix(0.7064 -0.707813 0.7064 0.707813 297.836 172.796)" fill="#5225B0" fill-opacity="0.3"/>
<rect width="3.44043" height="550.595" rx="1.72021" transform="matrix(0.7064 -0.707813 0.7064 0.707813 494.188 -23.95)" fill="#5225B0" fill-opacity="0.3"/>
<rect width="3.44043" height="550.595" rx="1.72021" transform="matrix(0.7064 -0.707813 0.7064 0.707813 290.562 180.083)" fill="#5225B0" fill-opacity="0.3"/>
<rect width="3.44043" height="550.595" rx="1.72021" transform="matrix(0.7064 -0.707813 0.7064 0.707813 632.363 -162.4)" fill="#5225B0" fill-opacity="0.3"/>
<rect width="3.44043" height="550.595" rx="1.72021" transform="matrix(0.7064 -0.707813 0.7064 0.707813 428.738 41.6321)" fill="#5225B0" fill-opacity="0.3"/>
<rect width="3.44043" height="550.595" rx="1.72021" transform="matrix(0.7064 -0.707813 0.7064 0.707813 639.637 -169.687)" fill="#5225B0" fill-opacity="0.3"/>
<rect width="3.44043" height="550.595" rx="1.72021" transform="matrix(0.7064 -0.707813 0.7064 0.707813 436.008 34.3452)" fill="#5225B0" fill-opacity="0.3"/>
<rect width="3.44043" height="550.595" rx="1.72021" transform="matrix(0.7064 -0.707813 0.7064 0.707813 646.906 -176.974)" fill="#5225B0" fill-opacity="0.3"/>
<rect width="3.44043" height="550.595" rx="1.72021" transform="matrix(0.7064 -0.707813 0.7064 0.707813 443.281 27.0583)" fill="#5225B0" fill-opacity="0.3"/>
<rect width="3.44043" height="550.595" rx="1.72021" transform="matrix(0.7064 -0.707813 0.7064 0.707813 654.18 -184.261)" fill="#5225B0" fill-opacity="0.3"/>
<rect width="3.44043" height="550.595" rx="1.72021" transform="matrix(0.7064 -0.707813 0.7064 0.707813 450.555 19.7715)" fill="#5225B0" fill-opacity="0.3"/>
<rect width="3.44043" height="550.595" rx="1.72021" transform="matrix(0.7064 -0.707813 0.7064 0.707813 661.453 -191.548)" fill="#5225B0" fill-opacity="0.3"/>
<rect width="3.44043" height="550.595" rx="1.72021" transform="matrix(0.7064 -0.707813 0.7064 0.707813 457.828 12.4849)" fill="#5225B0" fill-opacity="0.3"/>
<rect width="3.44043" height="550.595" rx="1.72021" transform="matrix(0.7064 -0.707813 0.7064 0.707813 668.723 -198.835)" fill="#5225B0" fill-opacity="0.3"/>
<rect width="3.44043" height="550.595" rx="1.72021" transform="matrix(0.7064 -0.707813 0.7064 0.707813 465.098 5.19775)" fill="#5225B0" fill-opacity="0.3"/>
<rect width="3.44043" height="550.595" rx="1.72021" transform="matrix(0.7064 -0.707813 0.7064 0.707813 675.996 -206.122)" fill="#5225B0" fill-opacity="0.3"/>
<rect width="3.44043" height="550.595" rx="1.72021" transform="matrix(0.7064 -0.707813 0.7064 0.707813 472.371 -2.08911)" fill="#5225B0" fill-opacity="0.3"/>
<rect width="3.44043" height="550.595" rx="1.72021" transform="matrix(0.7064 -0.707813 0.7064 0.707813 683.27 -213.409)" fill="#5225B0" fill-opacity="0.3"/>
<rect width="3.44043" height="550.595" rx="1.72021" transform="matrix(0.7064 -0.707813 0.7064 0.707813 479.645 -9.37622)" fill="#5225B0" fill-opacity="0.3"/>
<rect width="3.44043" height="550.595" rx="1.72021" transform="matrix(0.7064 -0.707813 0.7064 0.707813 690.539 -220.696)" fill="#5225B0" fill-opacity="0.3"/>
<rect width="3.44043" height="550.595" rx="1.72021" transform="matrix(0.7064 -0.707813 0.7064 0.707813 486.914 -16.6628)" fill="#5225B0" fill-opacity="0.3"/>
</g>
<mask id="mask3_1955_16050" style="mask-type:alpha" maskUnits="userSpaceOnUse" x="830" y="-268" width="508" height="512">
<path d="M1075.44 143.93L1238.82 -20.7477C1249.67 -31.6516 1264.36 -37.7752 1279.68 -37.7752C1294.99 -37.7752 1309.68 -31.6516 1320.53 -20.7477C1331.34 -9.81873 1337.42 4.98911 1337.42 20.4272C1337.42 35.8654 1331.34 50.6732 1320.53 61.6021L1157.14 226.28C1146.3 237.184 1131.61 243.308 1116.29 243.308C1100.98 243.308 1086.28 237.184 1075.44 226.28C1064.62 215.351 1058.55 200.543 1058.55 185.105C1058.55 169.667 1064.62 154.859 1075.44 143.93ZM847.366 -3.60403C858.208 7.29327 872.895 13.4128 888.207 13.4128C903.518 13.4128 918.205 7.29327 929.047 -3.60403L1092.45 -168.303C1103.26 -179.232 1109.33 -194.035 1109.33 -209.468C1109.33 -224.9 1103.26 -239.704 1092.45 -250.632C1081.61 -261.536 1066.92 -267.659 1051.6 -267.659C1036.28 -267.659 1021.59 -261.536 1010.75 -250.632L847.366 -85.9538C836.548 -75.0248 830.473 -60.217 830.473 -44.7789C830.473 -29.3407 836.548 -14.533 847.366 -3.60403ZM1022.64 49.5541C1033.48 60.458 1048.17 66.5816 1063.49 66.5816C1078.81 66.5816 1093.5 60.458 1104.34 49.5541L1145.19 8.37921C1156.01 -2.54971 1162.08 -17.3575 1162.08 -32.7956C1162.08 -48.2338 1156.01 -63.0416 1145.19 -73.9705C1134.35 -84.8744 1119.66 -90.9981 1104.34 -90.9981C1089.02 -90.9981 1074.33 -84.8744 1063.49 -73.9705L1022.64 -32.7956C1011.82 -21.8667 1005.74 -7.05893 1005.74 8.37921C1005.74 23.8174 1011.82 38.6252 1022.64 49.5541Z" fill="url(#paint3_linear_1955_16050)"/>
</mask>
<g mask="url(#mask3_1955_16050)">
<rect width="3.44043" height="550.595" rx="1.72021" transform="matrix(0.7064 -0.707813 0.7064 0.707813 968.047 -241.36)" fill="#5225B0" fill-opacity="0.3"/>
<rect width="3.44043" height="550.595" rx="1.72021" transform="matrix(0.7064 -0.707813 0.7064 0.707813 764.422 -37.3279)" fill="#5225B0" fill-opacity="0.3"/>
<rect width="3.44043" height="550.595" rx="1.72021" transform="matrix(0.7064 -0.707813 0.7064 0.707813 960.777 -234.074)" fill="#5225B0" fill-opacity="0.3"/>
<rect width="3.44043" height="550.595" rx="1.72021" transform="matrix(0.7064 -0.707813 0.7064 0.707813 757.152 -30.041)" fill="#5225B0" fill-opacity="0.3"/>
<rect width="3.44043" height="550.595" rx="1.72021" transform="matrix(0.7064 -0.707813 0.7064 0.707813 953.504 -226.787)" fill="#5225B0" fill-opacity="0.3"/>
<rect width="3.44043" height="550.595" rx="1.72021" transform="matrix(0.7064 -0.707813 0.7064 0.707813 749.879 -22.7542)" fill="#5225B0" fill-opacity="0.3"/>
<rect width="3.44043" height="550.595" rx="1.72021" transform="matrix(0.7064 -0.707813 0.7064 0.707813 946.23 -219.5)" fill="#5225B0" fill-opacity="0.3"/>
<rect width="3.44043" height="550.595" rx="1.72021" transform="matrix(0.7064 -0.707813 0.7064 0.707813 742.605 -15.467)" fill="#5225B0" fill-opacity="0.3"/>
<rect width="3.44043" height="550.595" rx="1.72021" transform="matrix(0.7064 -0.707813 0.7064 0.707813 938.957 -212.213)" fill="#5225B0" fill-opacity="0.3"/>
<rect width="3.44043" height="550.595" rx="1.72021" transform="matrix(0.7064 -0.707813 0.7064 0.707813 735.332 -8.18018)" fill="#5225B0" fill-opacity="0.3"/>
<rect width="3.44043" height="550.595" rx="1.72021" transform="matrix(0.7064 -0.707813 0.7064 0.707813 931.688 -204.926)" fill="#5225B0" fill-opacity="0.3"/>
<rect width="3.44043" height="550.595" rx="1.72021" transform="matrix(0.7064 -0.707813 0.7064 0.707813 728.062 -0.893433)" fill="#5225B0" fill-opacity="0.3"/>
<rect width="3.44043" height="550.595" rx="1.72021" transform="matrix(0.7064 -0.707813 0.7064 0.707813 924.414 -197.639)" fill="#5225B0" fill-opacity="0.3"/>
<rect width="3.44043" height="550.595" rx="1.72021" transform="matrix(0.7064 -0.707813 0.7064 0.707813 720.789 6.39355)" fill="#5225B0" fill-opacity="0.3"/>
<rect width="3.44043" height="550.595" rx="1.72021" transform="matrix(0.7064 -0.707813 0.7064 0.707813 917.141 -190.353)" fill="#5225B0" fill-opacity="0.3"/>
<rect width="3.44043" height="550.595" rx="1.72021" transform="matrix(0.7064 -0.707813 0.7064 0.707813 713.516 13.6803)" fill="#5225B0" fill-opacity="0.3"/>
<rect width="3.44043" height="550.595" rx="1.72021" transform="matrix(0.7064 -0.707813 0.7064 0.707813 909.871 -183.065)" fill="#5225B0" fill-opacity="0.3"/>
<rect width="3.44043" height="550.595" rx="1.72021" transform="matrix(0.7064 -0.707813 0.7064 0.707813 706.242 20.9673)" fill="#5225B0" fill-opacity="0.3"/>
<rect width="3.44043" height="550.595" rx="1.72021" transform="matrix(0.7064 -0.707813 0.7064 0.707813 902.598 -175.779)" fill="#5225B0" fill-opacity="0.3"/>
<rect width="3.44043" height="550.595" rx="1.72021" transform="matrix(0.7064 -0.707813 0.7064 0.707813 698.973 28.254)" fill="#5225B0" fill-opacity="0.3"/>
<rect width="3.44043" height="550.595" rx="1.72021" transform="matrix(0.7064 -0.707813 0.7064 0.707813 895.324 -168.492)" fill="#5225B0" fill-opacity="0.3"/>
<rect width="3.44043" height="550.595" rx="1.72021" transform="matrix(0.7064 -0.707813 0.7064 0.707813 691.699 35.541)" fill="#5225B0" fill-opacity="0.3"/>
<rect width="3.44043" height="550.595" rx="1.72021" transform="matrix(0.7064 -0.707813 0.7064 0.707813 888.051 -161.205)" fill="#5225B0" fill-opacity="0.3"/>
<rect width="3.44043" height="550.595" rx="1.72021" transform="matrix(0.7064 -0.707813 0.7064 0.707813 684.426 42.828)" fill="#5225B0" fill-opacity="0.3"/>
<rect width="3.44043" height="550.595" rx="1.72021" transform="matrix(0.7064 -0.707813 0.7064 0.707813 880.781 -153.918)" fill="#5225B0" fill-opacity="0.3"/>
<rect width="3.44043" height="550.595" rx="1.72021" transform="matrix(0.7064 -0.707813 0.7064 0.707813 677.156 50.1147)" fill="#5225B0" fill-opacity="0.3"/>
<rect width="3.44043" height="550.595" rx="1.72021" transform="matrix(0.7064 -0.707813 0.7064 0.707813 873.508 -146.631)" fill="#5225B0" fill-opacity="0.3"/>
<rect width="3.44043" height="550.595" rx="1.72021" transform="matrix(0.7064 -0.707813 0.7064 0.707813 669.883 57.4017)" fill="#5225B0" fill-opacity="0.3"/>
<rect width="3.44043" height="550.595" rx="1.72021" transform="matrix(0.7064 -0.707813 0.7064 0.707813 866.234 -139.344)" fill="#5225B0" fill-opacity="0.3"/>
<rect width="3.44043" height="550.595" rx="1.72021" transform="matrix(0.7064 -0.707813 0.7064 0.707813 662.609 64.6885)" fill="#5225B0" fill-opacity="0.3"/>
<rect width="3.44043" height="550.595" rx="1.72021" transform="matrix(0.7064 -0.707813 0.7064 0.707813 858.961 -132.057)" fill="#5225B0" fill-opacity="0.3"/>
<rect width="3.44043" height="550.595" rx="1.72021" transform="matrix(0.7064 -0.707813 0.7064 0.707813 655.34 71.9755)" fill="#5225B0" fill-opacity="0.3"/>
<rect width="3.44043" height="550.595" rx="1.72021" transform="matrix(0.7064 -0.707813 0.7064 0.707813 851.691 -124.77)" fill="#5225B0" fill-opacity="0.3"/>
<rect width="3.44043" height="550.595" rx="1.72021" transform="matrix(0.7064 -0.707813 0.7064 0.707813 648.066 79.2622)" fill="#5225B0" fill-opacity="0.3"/>
<rect width="3.44043" height="550.595" rx="1.72021" transform="matrix(0.7064 -0.707813 0.7064 0.707813 844.418 -117.483)" fill="#5225B0" fill-opacity="0.3"/>
<rect width="3.44043" height="550.595" rx="1.72021" transform="matrix(0.7064 -0.707813 0.7064 0.707813 640.793 86.5492)" fill="#5225B0" fill-opacity="0.3"/>
<rect width="3.44043" height="550.595" rx="1.72021" transform="matrix(0.7064 -0.707813 0.7064 0.707813 837.145 -110.197)" fill="#5225B0" fill-opacity="0.3"/>
<rect width="3.44043" height="550.595" rx="1.72021" transform="matrix(0.7064 -0.707813 0.7064 0.707813 633.52 93.8362)" fill="#5225B0" fill-opacity="0.3"/>
<rect width="3.44043" height="550.595" rx="1.72021" transform="matrix(0.7064 -0.707813 0.7064 0.707813 975.32 -248.647)" fill="#5225B0" fill-opacity="0.3"/>
<rect width="3.44043" height="550.595" rx="1.72021" transform="matrix(0.7064 -0.707813 0.7064 0.707813 771.695 -44.6147)" fill="#5225B0" fill-opacity="0.3"/>
<rect width="3.44043" height="550.595" rx="1.72021" transform="matrix(0.7064 -0.707813 0.7064 0.707813 982.594 -255.934)" fill="#5225B0" fill-opacity="0.3"/>
<rect width="3.44043" height="550.595" rx="1.72021" transform="matrix(0.7064 -0.707813 0.7064 0.707813 778.965 -51.9016)" fill="#5225B0" fill-opacity="0.3"/>
<rect width="3.44043" height="550.595" rx="1.72021" transform="matrix(0.7064 -0.707813 0.7064 0.707813 989.863 -263.221)" fill="#5225B0" fill-opacity="0.3"/>
<rect width="3.44043" height="550.595" rx="1.72021" transform="matrix(0.7064 -0.707813 0.7064 0.707813 786.238 -59.1885)" fill="#5225B0" fill-opacity="0.3"/>
<rect width="3.44043" height="550.595" rx="1.72021" transform="matrix(0.7064 -0.707813 0.7064 0.707813 997.137 -270.508)" fill="#5225B0" fill-opacity="0.3"/>
<rect width="3.44043" height="550.595" rx="1.72021" transform="matrix(0.7064 -0.707813 0.7064 0.707813 793.512 -66.4753)" fill="#5225B0" fill-opacity="0.3"/>
<rect width="3.44043" height="550.595" rx="1.72021" transform="matrix(0.7064 -0.707813 0.7064 0.707813 1004.41 -277.795)" fill="#5225B0" fill-opacity="0.3"/>
<rect width="3.44043" height="550.595" rx="1.72021" transform="matrix(0.7064 -0.707813 0.7064 0.707813 800.785 -73.7622)" fill="#5225B0" fill-opacity="0.3"/>
<rect width="3.44043" height="550.595" rx="1.72021" transform="matrix(0.7064 -0.707813 0.7064 0.707813 1011.68 -285.082)" fill="#5225B0" fill-opacity="0.3"/>
<rect width="3.44043" height="550.595" rx="1.72021" transform="matrix(0.7064 -0.707813 0.7064 0.707813 808.055 -81.0491)" fill="#5225B0" fill-opacity="0.3"/>
<rect width="3.44043" height="550.595" rx="1.72021" transform="matrix(0.7064 -0.707813 0.7064 0.707813 1018.95 -292.369)" fill="#5225B0" fill-opacity="0.3"/>
<rect width="3.44043" height="550.595" rx="1.72021" transform="matrix(0.7064 -0.707813 0.7064 0.707813 815.328 -88.3359)" fill="#5225B0" fill-opacity="0.3"/>
<rect width="3.44043" height="550.595" rx="1.72021" transform="matrix(0.7064 -0.707813 0.7064 0.707813 1026.23 -299.656)" fill="#5225B0" fill-opacity="0.3"/>
<rect width="3.44043" height="550.595" rx="1.72021" transform="matrix(0.7064 -0.707813 0.7064 0.707813 822.602 -95.623)" fill="#5225B0" fill-opacity="0.3"/>
<rect width="3.44043" height="550.595" rx="1.72021" transform="matrix(0.7064 -0.707813 0.7064 0.707813 1033.5 -306.942)" fill="#5225B0" fill-opacity="0.3"/>
<rect width="3.44043" height="550.595" rx="1.72021" transform="matrix(0.7064 -0.707813 0.7064 0.707813 829.871 -102.91)" fill="#5225B0" fill-opacity="0.3"/>
</g>
<mask id="mask4_1955_16050" style="mask-type:alpha" maskUnits="userSpaceOnUse" x="778" y="236" width="508" height="512">
<path d="M1023.81 647.675L1187.19 482.997C1198.03 472.093 1212.73 465.97 1228.04 465.97C1243.36 465.97 1258.05 472.093 1268.89 482.997C1279.71 493.926 1285.79 508.734 1285.79 524.172C1285.79 539.61 1279.71 554.418 1268.89 565.347L1105.51 730.025C1094.67 740.929 1079.98 747.052 1064.66 747.052C1049.34 747.052 1034.65 740.929 1023.81 730.025C1012.99 719.096 1006.92 704.288 1006.92 688.85C1006.92 673.412 1012.99 658.604 1023.81 647.675ZM795.733 500.141C806.576 511.038 821.262 517.158 836.574 517.158C851.885 517.158 866.572 511.038 877.414 500.141L1040.82 335.441C1051.63 324.513 1057.7 309.71 1057.7 294.277C1057.7 278.844 1051.63 264.041 1040.82 253.113C1029.97 242.209 1015.28 236.086 999.967 236.086C984.65 236.086 969.959 242.209 959.116 253.113L795.733 417.791C784.915 428.72 778.84 443.528 778.84 458.966C778.84 474.404 784.915 489.212 795.733 500.141ZM971.005 553.299C981.848 564.203 996.539 570.327 1011.86 570.327C1027.17 570.327 1041.86 564.203 1052.71 553.299L1093.56 512.124C1104.38 501.195 1110.45 486.387 1110.45 470.949C1110.45 455.511 1104.38 440.703 1093.56 429.774C1082.71 418.87 1068.02 412.747 1052.71 412.747C1037.39 412.747 1022.7 418.87 1011.86 429.774L971.005 470.949C960.187 481.878 954.111 496.686 954.111 512.124C954.111 527.562 960.187 542.37 971.005 553.299Z" fill="url(#paint4_linear_1955_16050)"/>
</mask>
<g mask="url(#mask4_1955_16050)">
<rect width="3.44043" height="550.595" rx="1.72021" transform="matrix(0.7064 -0.707813 0.7064 0.707813 916.414 262.385)" fill="#5225B0" fill-opacity="0.3"/>
<rect width="3.44043" height="550.595" rx="1.72021" transform="matrix(0.7064 -0.707813 0.7064 0.707813 712.789 466.417)" fill="#5225B0" fill-opacity="0.3"/>
<rect width="3.44043" height="550.595" rx="1.72021" transform="matrix(0.7064 -0.707813 0.7064 0.707813 909.145 269.671)" fill="#5225B0" fill-opacity="0.3"/>
<rect width="3.44043" height="550.595" rx="1.72021" transform="matrix(0.7064 -0.707813 0.7064 0.707813 705.52 473.704)" fill="#5225B0" fill-opacity="0.3"/>
<rect width="3.44043" height="550.595" rx="1.72021" transform="matrix(0.7064 -0.707813 0.7064 0.707813 901.871 276.958)" fill="#5225B0" fill-opacity="0.3"/>
<rect width="3.44043" height="550.595" rx="1.72021" transform="matrix(0.7064 -0.707813 0.7064 0.707813 698.246 480.991)" fill="#5225B0" fill-opacity="0.3"/>
<rect width="3.44043" height="550.595" rx="1.72021" transform="matrix(0.7064 -0.707813 0.7064 0.707813 894.598 284.245)" fill="#5225B0" fill-opacity="0.3"/>
<rect width="3.44043" height="550.595" rx="1.72021" transform="matrix(0.7064 -0.707813 0.7064 0.707813 690.973 488.278)" fill="#5225B0" fill-opacity="0.3"/>
<rect width="3.44043" height="550.595" rx="1.72021" transform="matrix(0.7064 -0.707813 0.7064 0.707813 887.324 291.532)" fill="#5225B0" fill-opacity="0.3"/>
<rect width="3.44043" height="550.595" rx="1.72021" transform="matrix(0.7064 -0.707813 0.7064 0.707813 683.699 495.565)" fill="#5225B0" fill-opacity="0.3"/>
<rect width="3.44043" height="550.595" rx="1.72021" transform="matrix(0.7064 -0.707813 0.7064 0.707813 880.055 298.819)" fill="#5225B0" fill-opacity="0.3"/>
<rect width="3.44043" height="550.595" rx="1.72021" transform="matrix(0.7064 -0.707813 0.7064 0.707813 676.43 502.851)" fill="#5225B0" fill-opacity="0.3"/>
<rect width="3.44043" height="550.595" rx="1.72021" transform="matrix(0.7064 -0.707813 0.7064 0.707813 872.781 306.106)" fill="#5225B0" fill-opacity="0.3"/>
<rect width="3.44043" height="550.595" rx="1.72021" transform="matrix(0.7064 -0.707813 0.7064 0.707813 669.156 510.138)" fill="#5225B0" fill-opacity="0.3"/>
<rect width="3.44043" height="550.595" rx="1.72021" transform="matrix(0.7064 -0.707813 0.7064 0.707813 865.508 313.392)" fill="#5225B0" fill-opacity="0.3"/>
<rect width="3.44043" height="550.595" rx="1.72021" transform="matrix(0.7064 -0.707813 0.7064 0.707813 661.883 517.425)" fill="#5225B0" fill-opacity="0.3"/>
<rect width="3.44043" height="550.595" rx="1.72021" transform="matrix(0.7064 -0.707813 0.7064 0.707813 858.238 320.679)" fill="#5225B0" fill-opacity="0.3"/>
<rect width="3.44043" height="550.595" rx="1.72021" transform="matrix(0.7064 -0.707813 0.7064 0.707813 654.609 524.712)" fill="#5225B0" fill-opacity="0.3"/>
<rect width="3.44043" height="550.595" rx="1.72021" transform="matrix(0.7064 -0.707813 0.7064 0.707813 850.965 327.966)" fill="#5225B0" fill-opacity="0.3"/>
<rect width="3.44043" height="550.595" rx="1.72021" transform="matrix(0.7064 -0.707813 0.7064 0.707813 647.34 531.999)" fill="#5225B0" fill-opacity="0.3"/>
<rect width="3.44043" height="550.595" rx="1.72021" transform="matrix(0.7064 -0.707813 0.7064 0.707813 843.691 335.253)" fill="#5225B0" fill-opacity="0.3"/>
<rect width="3.44043" height="550.595" rx="1.72021" transform="matrix(0.7064 -0.707813 0.7064 0.707813 640.066 539.286)" fill="#5225B0" fill-opacity="0.3"/>
<rect width="3.44043" height="550.595" rx="1.72021" transform="matrix(0.7064 -0.707813 0.7064 0.707813 836.418 342.54)" fill="#5225B0" fill-opacity="0.3"/>
<rect width="3.44043" height="550.595" rx="1.72021" transform="matrix(0.7064 -0.707813 0.7064 0.707813 632.793 546.573)" fill="#5225B0" fill-opacity="0.3"/>
<rect width="3.44043" height="550.595" rx="1.72021" transform="matrix(0.7064 -0.707813 0.7064 0.707813 829.148 349.827)" fill="#5225B0" fill-opacity="0.3"/>
<rect width="3.44043" height="550.595" rx="1.72021" transform="matrix(0.7064 -0.707813 0.7064 0.707813 625.523 553.86)" fill="#5225B0" fill-opacity="0.3"/>
<rect width="3.44043" height="550.595" rx="1.72021" transform="matrix(0.7064 -0.707813 0.7064 0.707813 821.875 357.114)" fill="#5225B0" fill-opacity="0.3"/>
<rect width="3.44043" height="550.595" rx="1.72021" transform="matrix(0.7064 -0.707813 0.7064 0.707813 618.25 561.147)" fill="#5225B0" fill-opacity="0.3"/>
<rect width="3.44043" height="550.595" rx="1.72021" transform="matrix(0.7064 -0.707813 0.7064 0.707813 814.602 364.401)" fill="#5225B0" fill-opacity="0.3"/>
<rect width="3.44043" height="550.595" rx="1.72021" transform="matrix(0.7064 -0.707813 0.7064 0.707813 610.977 568.433)" fill="#5225B0" fill-opacity="0.3"/>
<rect width="3.44043" height="550.595" rx="1.72021" transform="matrix(0.7064 -0.707813 0.7064 0.707813 807.328 371.688)" fill="#5225B0" fill-opacity="0.3"/>
<rect width="3.44043" height="550.595" rx="1.72021" transform="matrix(0.7064 -0.707813 0.7064 0.707813 603.707 575.72)" fill="#5225B0" fill-opacity="0.3"/>
<rect width="3.44043" height="550.595" rx="1.72021" transform="matrix(0.7064 -0.707813 0.7064 0.707813 800.059 378.975)" fill="#5225B0" fill-opacity="0.3"/>
<rect width="3.44043" height="550.595" rx="1.72021" transform="matrix(0.7064 -0.707813 0.7064 0.707813 596.434 583.007)" fill="#5225B0" fill-opacity="0.3"/>
<rect width="3.44043" height="550.595" rx="1.72021" transform="matrix(0.7064 -0.707813 0.7064 0.707813 792.785 386.261)" fill="#5225B0" fill-opacity="0.3"/>
<rect width="3.44043" height="550.595" rx="1.72021" transform="matrix(0.7064 -0.707813 0.7064 0.707813 589.16 590.294)" fill="#5225B0" fill-opacity="0.3"/>
<rect width="3.44043" height="550.595" rx="1.72021" transform="matrix(0.7064 -0.707813 0.7064 0.707813 785.512 393.548)" fill="#5225B0" fill-opacity="0.3"/>
<rect width="3.44043" height="550.595" rx="1.72021" transform="matrix(0.7064 -0.707813 0.7064 0.707813 581.887 597.581)" fill="#5225B0" fill-opacity="0.3"/>
<rect width="3.44043" height="550.595" rx="1.72021" transform="matrix(0.7064 -0.707813 0.7064 0.707813 923.688 255.098)" fill="#5225B0" fill-opacity="0.3"/>
<rect width="3.44043" height="550.595" rx="1.72021" transform="matrix(0.7064 -0.707813 0.7064 0.707813 720.062 459.13)" fill="#5225B0" fill-opacity="0.3"/>
<rect width="3.44043" height="550.595" rx="1.72021" transform="matrix(0.7064 -0.707813 0.7064 0.707813 930.961 247.811)" fill="#5225B0" fill-opacity="0.3"/>
<rect width="3.44043" height="550.595" rx="1.72021" transform="matrix(0.7064 -0.707813 0.7064 0.707813 727.332 451.843)" fill="#5225B0" fill-opacity="0.3"/>
<rect width="3.44043" height="550.595" rx="1.72021" transform="matrix(0.7064 -0.707813 0.7064 0.707813 938.23 240.524)" fill="#5225B0" fill-opacity="0.3"/>
<rect width="3.44043" height="550.595" rx="1.72021" transform="matrix(0.7064 -0.707813 0.7064 0.707813 734.605 444.556)" fill="#5225B0" fill-opacity="0.3"/>
<rect width="3.44043" height="550.595" rx="1.72021" transform="matrix(0.7064 -0.707813 0.7064 0.707813 945.504 233.237)" fill="#5225B0" fill-opacity="0.3"/>
<rect width="3.44043" height="550.595" rx="1.72021" transform="matrix(0.7064 -0.707813 0.7064 0.707813 741.879 437.27)" fill="#5225B0" fill-opacity="0.3"/>
<rect width="3.44043" height="550.595" rx="1.72021" transform="matrix(0.7064 -0.707813 0.7064 0.707813 952.777 225.95)" fill="#5225B0" fill-opacity="0.3"/>
<rect width="3.44043" height="550.595" rx="1.72021" transform="matrix(0.7064 -0.707813 0.7064 0.707813 749.152 429.983)" fill="#5225B0" fill-opacity="0.3"/>
<rect width="3.44043" height="550.595" rx="1.72021" transform="matrix(0.7064 -0.707813 0.7064 0.707813 960.047 218.663)" fill="#5225B0" fill-opacity="0.3"/>
<rect width="3.44043" height="550.595" rx="1.72021" transform="matrix(0.7064 -0.707813 0.7064 0.707813 756.422 422.696)" fill="#5225B0" fill-opacity="0.3"/>
<rect width="3.44043" height="550.595" rx="1.72021" transform="matrix(0.7064 -0.707813 0.7064 0.707813 967.32 211.376)" fill="#5225B0" fill-opacity="0.3"/>
<rect width="3.44043" height="550.595" rx="1.72021" transform="matrix(0.7064 -0.707813 0.7064 0.707813 763.695 415.409)" fill="#5225B0" fill-opacity="0.3"/>
<rect width="3.44043" height="550.595" rx="1.72021" transform="matrix(0.7064 -0.707813 0.7064 0.707813 974.594 204.089)" fill="#5225B0" fill-opacity="0.3"/>
<rect width="3.44043" height="550.595" rx="1.72021" transform="matrix(0.7064 -0.707813 0.7064 0.707813 770.969 408.122)" fill="#5225B0" fill-opacity="0.3"/>
<rect width="3.44043" height="550.595" rx="1.72021" transform="matrix(0.7064 -0.707813 0.7064 0.707813 981.863 196.803)" fill="#5225B0" fill-opacity="0.3"/>
<rect width="3.44043" height="550.595" rx="1.72021" transform="matrix(0.7064 -0.707813 0.7064 0.707813 778.238 400.835)" fill="#5225B0" fill-opacity="0.3"/>
</g>
<mask id="mask5_1955_16050" style="mask-type:alpha" maskUnits="userSpaceOnUse" x="1111" y="159" width="508" height="512">
<path d="M1356.84 571.125L1520.22 406.447C1531.07 395.543 1545.76 389.419 1561.07 389.419C1576.39 389.419 1591.08 395.543 1601.92 406.447C1612.74 417.376 1618.82 432.184 1618.82 447.622C1618.82 463.06 1612.74 477.868 1601.92 488.797L1438.54 653.474C1427.7 664.378 1413.01 670.502 1397.69 670.502C1382.37 670.502 1367.68 664.378 1356.84 653.474C1346.02 642.546 1339.95 627.738 1339.95 612.3C1339.95 596.861 1346.02 582.054 1356.84 571.125ZM1128.76 423.59C1139.61 434.488 1154.29 440.607 1169.6 440.607C1184.92 440.607 1199.6 434.488 1210.45 423.59L1373.85 258.891C1384.66 247.963 1390.73 233.16 1390.73 217.727C1390.73 202.294 1384.66 187.491 1373.85 176.563C1363.01 165.659 1348.31 159.535 1333 159.535C1317.68 159.535 1302.99 165.659 1292.15 176.563L1128.76 341.241C1117.95 352.17 1111.87 366.977 1111.87 382.416C1111.87 397.854 1117.95 412.661 1128.76 423.59ZM1304.04 476.749C1314.88 487.652 1329.57 493.776 1344.89 493.776C1360.2 493.776 1374.9 487.652 1385.74 476.749L1426.59 435.574C1437.41 424.645 1443.48 409.837 1443.48 394.399C1443.48 378.961 1437.41 364.153 1426.59 353.224C1415.75 342.32 1401.05 336.196 1385.74 336.196C1370.42 336.196 1355.73 342.32 1344.89 353.224L1304.04 394.399C1293.22 405.328 1287.14 420.136 1287.14 435.574C1287.14 451.012 1293.22 465.82 1304.04 476.749Z" fill="url(#paint5_linear_1955_16050)"/>
</mask>
<g mask="url(#mask5_1955_16050)">
<rect width="3.44043" height="550.595" rx="1.72021" transform="matrix(0.7064 -0.707813 0.7064 0.707813 1249.45 185.834)" fill="#5225B0" fill-opacity="0.3"/>
<rect width="3.44043" height="550.595" rx="1.72021" transform="matrix(0.7064 -0.707813 0.7064 0.707813 1045.82 389.867)" fill="#5225B0" fill-opacity="0.3"/>
<rect width="3.44043" height="550.595" rx="1.72021" transform="matrix(0.7064 -0.707813 0.7064 0.707813 1242.17 193.121)" fill="#5225B0" fill-opacity="0.3"/>
<rect width="3.44043" height="550.595" rx="1.72021" transform="matrix(0.7064 -0.707813 0.7064 0.707813 1038.55 397.154)" fill="#5225B0" fill-opacity="0.3"/>
<rect width="3.44043" height="550.595" rx="1.72021" transform="matrix(0.7064 -0.707813 0.7064 0.707813 1234.9 200.408)" fill="#5225B0" fill-opacity="0.3"/>
<rect width="3.44043" height="550.595" rx="1.72021" transform="matrix(0.7064 -0.707813 0.7064 0.707813 1031.28 404.44)" fill="#5225B0" fill-opacity="0.3"/>
<rect width="3.44043" height="550.595" rx="1.72021" transform="matrix(0.7064 -0.707813 0.7064 0.707813 1227.63 207.694)" fill="#5225B0" fill-opacity="0.3"/>
<rect width="3.44043" height="550.595" rx="1.72021" transform="matrix(0.7064 -0.707813 0.7064 0.707813 1024 411.727)" fill="#5225B0" fill-opacity="0.3"/>
<rect width="3.44043" height="550.595" rx="1.72021" transform="matrix(0.7064 -0.707813 0.7064 0.707813 1220.36 214.981)" fill="#5225B0" fill-opacity="0.3"/>
<rect width="3.44043" height="550.595" rx="1.72021" transform="matrix(0.7064 -0.707813 0.7064 0.707813 1016.73 419.014)" fill="#5225B0" fill-opacity="0.3"/>
<rect width="3.44043" height="550.595" rx="1.72021" transform="matrix(0.7064 -0.707813 0.7064 0.707813 1213.09 222.268)" fill="#5225B0" fill-opacity="0.3"/>
<rect width="3.44043" height="550.595" rx="1.72021" transform="matrix(0.7064 -0.707813 0.7064 0.707813 1009.46 426.301)" fill="#5225B0" fill-opacity="0.3"/>
<rect width="3.44043" height="550.595" rx="1.72021" transform="matrix(0.7064 -0.707813 0.7064 0.707813 1205.81 229.555)" fill="#5225B0" fill-opacity="0.3"/>
<rect width="3.44043" height="550.595" rx="1.72021" transform="matrix(0.7064 -0.707813 0.7064 0.707813 1002.19 433.588)" fill="#5225B0" fill-opacity="0.3"/>
<rect width="3.44043" height="550.595" rx="1.72021" transform="matrix(0.7064 -0.707813 0.7064 0.707813 1198.54 236.842)" fill="#5225B0" fill-opacity="0.3"/>
<rect width="3.44043" height="550.595" rx="1.72021" transform="matrix(0.7064 -0.707813 0.7064 0.707813 994.914 440.875)" fill="#5225B0" fill-opacity="0.3"/>
<rect width="3.44043" height="550.595" rx="1.72021" transform="matrix(0.7064 -0.707813 0.7064 0.707813 1191.27 244.129)" fill="#5225B0" fill-opacity="0.3"/>
<rect width="3.44043" height="550.595" rx="1.72021" transform="matrix(0.7064 -0.707813 0.7064 0.707813 987.641 448.162)" fill="#5225B0" fill-opacity="0.3"/>
<rect width="3.44043" height="550.595" rx="1.72021" transform="matrix(0.7064 -0.707813 0.7064 0.707813 1184 251.416)" fill="#5225B0" fill-opacity="0.3"/>
<rect width="3.44043" height="550.595" rx="1.72021" transform="matrix(0.7064 -0.707813 0.7064 0.707813 980.371 455.448)" fill="#5225B0" fill-opacity="0.3"/>
<rect width="3.44043" height="550.595" rx="1.72021" transform="matrix(0.7064 -0.707813 0.7064 0.707813 1176.72 258.703)" fill="#5225B0" fill-opacity="0.3"/>
<rect width="3.44043" height="550.595" rx="1.72021" transform="matrix(0.7064 -0.707813 0.7064 0.707813 973.098 462.735)" fill="#5225B0" fill-opacity="0.3"/>
<rect width="3.44043" height="550.595" rx="1.72021" transform="matrix(0.7064 -0.707813 0.7064 0.707813 1169.45 265.99)" fill="#5225B0" fill-opacity="0.3"/>
<rect width="3.44043" height="550.595" rx="1.72021" transform="matrix(0.7064 -0.707813 0.7064 0.707813 965.824 470.022)" fill="#5225B0" fill-opacity="0.3"/>
<rect width="3.44043" height="550.595" rx="1.72021" transform="matrix(0.7064 -0.707813 0.7064 0.707813 1162.18 273.276)" fill="#5225B0" fill-opacity="0.3"/>
<rect width="3.44043" height="550.595" rx="1.72021" transform="matrix(0.7064 -0.707813 0.7064 0.707813 958.555 477.309)" fill="#5225B0" fill-opacity="0.3"/>
<rect width="3.44043" height="550.595" rx="1.72021" transform="matrix(0.7064 -0.707813 0.7064 0.707813 1154.91 280.563)" fill="#5225B0" fill-opacity="0.3"/>
<rect width="3.44043" height="550.595" rx="1.72021" transform="matrix(0.7064 -0.707813 0.7064 0.707813 951.281 484.596)" fill="#5225B0" fill-opacity="0.3"/>
<rect width="3.44043" height="550.595" rx="1.72021" transform="matrix(0.7064 -0.707813 0.7064 0.707813 1147.63 287.85)" fill="#5225B0" fill-opacity="0.3"/>
<rect width="3.44043" height="550.595" rx="1.72021" transform="matrix(0.7064 -0.707813 0.7064 0.707813 944.008 491.883)" fill="#5225B0" fill-opacity="0.3"/>
<rect width="3.44043" height="550.595" rx="1.72021" transform="matrix(0.7064 -0.707813 0.7064 0.707813 1140.36 295.137)" fill="#5225B0" fill-opacity="0.3"/>
<rect width="3.44043" height="550.595" rx="1.72021" transform="matrix(0.7064 -0.707813 0.7064 0.707813 936.734 499.17)" fill="#5225B0" fill-opacity="0.3"/>
<rect width="3.44043" height="550.595" rx="1.72021" transform="matrix(0.7064 -0.707813 0.7064 0.707813 1133.09 302.424)" fill="#5225B0" fill-opacity="0.3"/>
<rect width="3.44043" height="550.595" rx="1.72021" transform="matrix(0.7064 -0.707813 0.7064 0.707813 929.465 506.457)" fill="#5225B0" fill-opacity="0.3"/>
<rect width="3.44043" height="550.595" rx="1.72021" transform="matrix(0.7064 -0.707813 0.7064 0.707813 1125.82 309.711)" fill="#5225B0" fill-opacity="0.3"/>
<rect width="3.44043" height="550.595" rx="1.72021" transform="matrix(0.7064 -0.707813 0.7064 0.707813 922.191 513.744)" fill="#5225B0" fill-opacity="0.3"/>
<rect width="3.44043" height="550.595" rx="1.72021" transform="matrix(0.7064 -0.707813 0.7064 0.707813 1118.54 316.998)" fill="#5225B0" fill-opacity="0.3"/>
<rect width="3.44043" height="550.595" rx="1.72021" transform="matrix(0.7064 -0.707813 0.7064 0.707813 914.918 521.031)" fill="#5225B0" fill-opacity="0.3"/>
<rect width="3.44043" height="550.595" rx="1.72021" transform="matrix(0.7064 -0.707813 0.7064 0.707813 1256.72 178.547)" fill="#5225B0" fill-opacity="0.3"/>
<rect width="3.44043" height="550.595" rx="1.72021" transform="matrix(0.7064 -0.707813 0.7064 0.707813 1053.09 382.58)" fill="#5225B0" fill-opacity="0.3"/>
<rect width="3.44043" height="550.595" rx="1.72021" transform="matrix(0.7064 -0.707813 0.7064 0.707813 1263.99 171.26)" fill="#5225B0" fill-opacity="0.3"/>
<rect width="3.44043" height="550.595" rx="1.72021" transform="matrix(0.7064 -0.707813 0.7064 0.707813 1060.36 375.293)" fill="#5225B0" fill-opacity="0.3"/>
<rect width="3.44043" height="550.595" rx="1.72021" transform="matrix(0.7064 -0.707813 0.7064 0.707813 1271.26 163.973)" fill="#5225B0" fill-opacity="0.3"/>
<rect width="3.44043" height="550.595" rx="1.72021" transform="matrix(0.7064 -0.707813 0.7064 0.707813 1067.64 368.006)" fill="#5225B0" fill-opacity="0.3"/>
<rect width="3.44043" height="550.595" rx="1.72021" transform="matrix(0.7064 -0.707813 0.7064 0.707813 1278.54 156.686)" fill="#5225B0" fill-opacity="0.3"/>
<rect width="3.44043" height="550.595" rx="1.72021" transform="matrix(0.7064 -0.707813 0.7064 0.707813 1074.91 360.719)" fill="#5225B0" fill-opacity="0.3"/>
<rect width="3.44043" height="550.595" rx="1.72021" transform="matrix(0.7064 -0.707813 0.7064 0.707813 1285.81 149.4)" fill="#5225B0" fill-opacity="0.3"/>
<rect width="3.44043" height="550.595" rx="1.72021" transform="matrix(0.7064 -0.707813 0.7064 0.707813 1082.18 353.432)" fill="#5225B0" fill-opacity="0.3"/>
<rect width="3.44043" height="550.595" rx="1.72021" transform="matrix(0.7064 -0.707813 0.7064 0.707813 1293.08 142.113)" fill="#5225B0" fill-opacity="0.3"/>
<rect width="3.44043" height="550.595" rx="1.72021" transform="matrix(0.7064 -0.707813 0.7064 0.707813 1089.45 346.145)" fill="#5225B0" fill-opacity="0.3"/>
<rect width="3.44043" height="550.595" rx="1.72021" transform="matrix(0.7064 -0.707813 0.7064 0.707813 1300.35 134.826)" fill="#5225B0" fill-opacity="0.3"/>
<rect width="3.44043" height="550.595" rx="1.72021" transform="matrix(0.7064 -0.707813 0.7064 0.707813 1096.73 338.858)" fill="#5225B0" fill-opacity="0.3"/>
<rect width="3.44043" height="550.595" rx="1.72021" transform="matrix(0.7064 -0.707813 0.7064 0.707813 1307.62 127.539)" fill="#5225B0" fill-opacity="0.3"/>
<rect width="3.44043" height="550.595" rx="1.72021" transform="matrix(0.7064 -0.707813 0.7064 0.707813 1104 331.571)" fill="#5225B0" fill-opacity="0.3"/>
<rect width="3.44043" height="550.595" rx="1.72021" transform="matrix(0.7064 -0.707813 0.7064 0.707813 1314.89 120.252)" fill="#5225B0" fill-opacity="0.3"/>
<rect width="3.44043" height="550.595" rx="1.72021" transform="matrix(0.7064 -0.707813 0.7064 0.707813 1111.27 324.285)" fill="#5225B0" fill-opacity="0.3"/>
</g>
<mask id="mask6_1955_16050" style="mask-type:alpha" maskUnits="userSpaceOnUse" x="1052" y="670" width="508" height="512">
<path d="M1297.49 1082.03L1460.88 917.351C1471.72 906.447 1486.41 900.323 1501.73 900.323C1517.04 900.323 1531.73 906.447 1542.58 917.351C1553.4 928.28 1559.47 943.087 1559.47 958.526C1559.47 973.964 1553.4 988.771 1542.58 999.7L1379.19 1164.38C1368.35 1175.28 1353.66 1181.41 1338.34 1181.41C1323.03 1181.41 1308.34 1175.28 1297.49 1164.38C1286.67 1153.45 1280.6 1138.64 1280.6 1123.2C1280.6 1107.77 1286.67 1092.96 1297.49 1082.03ZM1069.42 934.494C1080.26 945.392 1094.95 951.511 1110.26 951.511C1125.57 951.511 1140.26 945.392 1151.1 934.494L1314.5 769.795C1325.31 758.867 1331.38 744.064 1331.38 728.631C1331.38 713.198 1325.31 698.395 1314.5 687.467C1303.66 676.563 1288.97 670.439 1273.65 670.439C1258.33 670.439 1243.64 676.563 1232.8 687.467L1069.42 852.145C1058.6 863.073 1052.52 877.881 1052.52 893.319C1052.52 908.758 1058.6 923.565 1069.42 934.494ZM1244.69 987.652C1255.53 998.556 1270.22 1004.68 1285.54 1004.68C1300.86 1004.68 1315.55 998.556 1326.39 987.652L1367.24 946.477C1378.06 935.549 1384.13 920.741 1384.13 905.303C1384.13 889.864 1378.06 875.057 1367.24 864.128C1356.4 853.224 1341.71 847.1 1326.39 847.1C1311.07 847.1 1296.38 853.224 1285.54 864.128L1244.69 905.303C1233.87 916.232 1227.79 931.039 1227.79 946.477C1227.79 961.916 1233.87 976.723 1244.69 987.652Z" fill="url(#paint6_linear_1955_16050)"/>
</mask>
<g mask="url(#mask6_1955_16050)">
<rect width="3.44043" height="550.595" rx="1.72021" transform="matrix(0.7064 -0.707813 0.7064 0.707813 1190.1 696.738)" fill="#5225B0" fill-opacity="0.3"/>
<rect width="3.44043" height="550.595" rx="1.72021" transform="matrix(0.7064 -0.707813 0.7064 0.707813 1182.82 704.025)" fill="#5225B0" fill-opacity="0.3"/>
<rect width="3.44043" height="550.595" rx="1.72021" transform="matrix(0.7064 -0.707813 0.7064 0.707813 1175.55 711.312)" fill="#5225B0" fill-opacity="0.3"/>
<rect width="3.44043" height="550.595" rx="1.72021" transform="matrix(0.7064 -0.707813 0.7064 0.707813 1168.28 718.598)" fill="#5225B0" fill-opacity="0.3"/>
<rect width="3.44043" height="550.595" rx="1.72021" transform="matrix(0.7064 -0.707813 0.7064 0.707813 1161.01 725.885)" fill="#5225B0" fill-opacity="0.3"/>
<rect width="3.44043" height="550.595" rx="1.72021" transform="matrix(0.7064 -0.707813 0.7064 0.707813 1153.74 733.172)" fill="#5225B0" fill-opacity="0.3"/>
<rect width="3.44043" height="550.595" rx="1.72021" transform="matrix(0.7064 -0.707813 0.7064 0.707813 1146.46 740.459)" fill="#5225B0" fill-opacity="0.3"/>
<rect width="3.44043" height="550.595" rx="1.72021" transform="matrix(0.7064 -0.707813 0.7064 0.707813 1139.19 747.746)" fill="#5225B0" fill-opacity="0.3"/>
<rect width="3.44043" height="550.595" rx="1.72021" transform="matrix(0.7064 -0.707813 0.7064 0.707813 1131.92 755.033)" fill="#5225B0" fill-opacity="0.3"/>
<rect width="3.44043" height="550.595" rx="1.72021" transform="matrix(0.7064 -0.707813 0.7064 0.707813 1124.65 762.32)" fill="#5225B0" fill-opacity="0.3"/>
<rect width="3.44043" height="550.595" rx="1.72021" transform="matrix(0.7064 -0.707813 0.7064 0.707813 1117.38 769.607)" fill="#5225B0" fill-opacity="0.3"/>
<rect width="3.44043" height="550.595" rx="1.72021" transform="matrix(0.7064 -0.707813 0.7064 0.707813 1110.1 776.893)" fill="#5225B0" fill-opacity="0.3"/>
<rect width="3.44043" height="550.595" rx="1.72021" transform="matrix(0.7064 -0.707813 0.7064 0.707813 1102.83 784.18)" fill="#5225B0" fill-opacity="0.3"/>
<rect width="3.44043" height="550.595" rx="1.72021" transform="matrix(0.7064 -0.707813 0.7064 0.707813 1095.56 791.467)" fill="#5225B0" fill-opacity="0.3"/>
<rect width="3.44043" height="550.595" rx="1.72021" transform="matrix(0.7064 -0.707813 0.7064 0.707813 1088.29 798.754)" fill="#5225B0" fill-opacity="0.3"/>
<rect width="3.44043" height="550.595" rx="1.72021" transform="matrix(0.7064 -0.707813 0.7064 0.707813 1197.37 689.451)" fill="#5225B0" fill-opacity="0.3"/>
<rect width="3.44043" height="550.595" rx="1.72021" transform="matrix(0.7064 -0.707813 0.7064 0.707813 1204.64 682.164)" fill="#5225B0" fill-opacity="0.3"/>
<rect width="3.44043" height="550.595" rx="1.72021" transform="matrix(0.7064 -0.707813 0.7064 0.707813 1211.91 674.877)" fill="#5225B0" fill-opacity="0.3"/>
<rect width="3.44043" height="550.595" rx="1.72021" transform="matrix(0.7064 -0.707813 0.7064 0.707813 1219.19 667.59)" fill="#5225B0" fill-opacity="0.3"/>
<rect width="3.44043" height="550.595" rx="1.72021" transform="matrix(0.7064 -0.707813 0.7064 0.707813 1226.46 660.303)" fill="#5225B0" fill-opacity="0.3"/>
<rect width="3.44043" height="550.595" rx="1.72021" transform="matrix(0.7064 -0.707813 0.7064 0.707813 1233.73 653.017)" fill="#5225B0" fill-opacity="0.3"/>
<rect width="3.44043" height="550.595" rx="1.72021" transform="matrix(0.7064 -0.707813 0.7064 0.707813 1241 645.73)" fill="#5225B0" fill-opacity="0.3"/>
<rect width="3.44043" height="550.595" rx="1.72021" transform="matrix(0.7064 -0.707813 0.7064 0.707813 1248.28 638.443)" fill="#5225B0" fill-opacity="0.3"/>
<rect width="3.44043" height="550.595" rx="1.72021" transform="matrix(0.7064 -0.707813 0.7064 0.707813 1255.55 631.156)" fill="#5225B0" fill-opacity="0.3"/>
</g>
<mask id="mask7_1955_16050" style="mask-type:alpha" maskUnits="userSpaceOnUse" x="708" y="758" width="508" height="512">
<path d="M953.45 1169.76L1116.83 1005.08C1127.68 994.178 1142.37 988.054 1157.68 988.054C1173 988.054 1187.69 994.178 1198.53 1005.08C1209.35 1016.01 1215.43 1030.82 1215.43 1046.26C1215.43 1061.69 1209.35 1076.5 1198.53 1087.43L1035.15 1252.11C1024.31 1263.01 1009.62 1269.14 994.301 1269.14C978.984 1269.14 964.293 1263.01 953.45 1252.11C942.632 1241.18 936.556 1226.37 936.556 1210.93C936.556 1195.5 942.632 1180.69 953.45 1169.76ZM725.374 1022.23C736.216 1033.12 750.903 1039.24 766.214 1039.24C781.526 1039.24 796.213 1033.12 807.055 1022.23L970.458 857.526C981.27 846.598 987.341 831.794 987.341 816.362C987.341 800.929 981.27 786.126 970.458 775.197C959.615 764.294 944.924 758.17 929.607 758.17C914.291 758.17 899.599 764.294 888.756 775.197L725.374 939.875C714.556 950.804 708.48 965.612 708.48 981.05C708.48 996.488 714.556 1011.3 725.374 1022.23ZM900.645 1075.38C911.488 1086.29 926.18 1092.41 941.496 1092.41C956.813 1092.41 971.504 1086.29 982.347 1075.38L1023.2 1034.21C1034.02 1023.28 1040.09 1008.47 1040.09 993.033C1040.09 977.595 1034.02 962.788 1023.2 951.859C1012.36 940.955 997.664 934.831 982.347 934.831C967.031 934.831 952.339 940.955 941.496 951.859L900.645 993.033C889.827 1003.96 883.752 1018.77 883.752 1034.21C883.752 1049.65 889.827 1064.45 900.645 1075.38Z" fill="url(#paint7_linear_1955_16050)"/>
</mask>
<g mask="url(#mask7_1955_16050)">
<rect width="3.44043" height="550.595" rx="1.72021" transform="matrix(0.7064 -0.707813 0.7064 0.707813 846.055 784.469)" fill="#5225B0" fill-opacity="0.3"/>
<rect width="3.44043" height="550.595" rx="1.72021" transform="matrix(0.7064 -0.707813 0.7064 0.707813 838.785 791.755)" fill="#5225B0" fill-opacity="0.3"/>
<rect width="3.44043" height="550.595" rx="1.72021" transform="matrix(0.7064 -0.707813 0.7064 0.707813 831.512 799.042)" fill="#5225B0" fill-opacity="0.3"/>
<rect width="3.44043" height="550.595" rx="1.72021" transform="matrix(0.7064 -0.707813 0.7064 0.707813 853.328 777.182)" fill="#5225B0" fill-opacity="0.3"/>
<rect width="3.44043" height="550.595" rx="1.72021" transform="matrix(0.7064 -0.707813 0.7064 0.707813 860.602 769.895)" fill="#5225B0" fill-opacity="0.3"/>
<rect width="3.44043" height="550.595" rx="1.72021" transform="matrix(0.7064 -0.707813 0.7064 0.707813 867.871 762.608)" fill="#5225B0" fill-opacity="0.3"/>
<rect width="3.44043" height="550.595" rx="1.72021" transform="matrix(0.7064 -0.707813 0.7064 0.707813 875.145 755.321)" fill="#5225B0" fill-opacity="0.3"/>
<rect width="3.44043" height="550.595" rx="1.72021" transform="matrix(0.7064 -0.707813 0.7064 0.707813 882.418 748.034)" fill="#5225B0" fill-opacity="0.3"/>
<rect width="3.44043" height="550.595" rx="1.72021" transform="matrix(0.7064 -0.707813 0.7064 0.707813 889.688 740.747)" fill="#5225B0" fill-opacity="0.3"/>
<rect width="3.44043" height="550.595" rx="1.72021" transform="matrix(0.7064 -0.707813 0.7064 0.707813 896.961 733.46)" fill="#5225B0" fill-opacity="0.3"/>
<rect width="3.44043" height="550.595" rx="1.72021" transform="matrix(0.7064 -0.707813 0.7064 0.707813 904.234 726.173)" fill="#5225B0" fill-opacity="0.3"/>
<rect width="3.44043" height="550.595" rx="1.72021" transform="matrix(0.7064 -0.707813 0.7064 0.707813 911.504 718.887)" fill="#5225B0" fill-opacity="0.3"/>
</g>
<rect x="0.171875" width="1436.83" height="799.189" fill="url(#paint8_linear_1955_16050)"/>
<circle opacity="0.32" cx="1209.17" cy="197" r="608" fill="url(#paint9_radial_1955_16050)"/>
</g>
<defs>
<linearGradient id="paint0_linear_1955_16050" x1="160.418" y1="-95.616" x2="668.836" y2="413.099" gradientUnits="userSpaceOnUse">
<stop stop-color="#DA1157"/>
<stop offset="0.5" stop-color="#6E2EF4"/>
<stop offset="1" stop-color="#2C6FF6"/>
</linearGradient>
<linearGradient id="paint1_linear_1955_16050" x1="429.633" y1="315.515" x2="938.051" y2="824.23" gradientUnits="userSpaceOnUse">
<stop stop-color="#DA1157"/>
<stop offset="0.5" stop-color="#6E2EF4"/>
<stop offset="1" stop-color="#2C6FF6"/>
</linearGradient>
<linearGradient id="paint2_linear_1955_16050" x1="487.516" y1="-181.412" x2="995.934" y2="327.303" gradientUnits="userSpaceOnUse">
<stop stop-color="#DA1157"/>
<stop offset="0.5" stop-color="#6E2EF4"/>
<stop offset="1" stop-color="#2C6FF6"/>
</linearGradient>
<linearGradient id="paint3_linear_1955_16050" x1="830.473" y1="-267.659" x2="1338.89" y2="241.056" gradientUnits="userSpaceOnUse">
<stop stop-color="#DA1157"/>
<stop offset="0.5" stop-color="#6E2EF4"/>
<stop offset="1" stop-color="#2C6FF6"/>
</linearGradient>
<linearGradient id="paint4_linear_1955_16050" x1="778.84" y1="236.086" x2="1287.26" y2="744.801" gradientUnits="userSpaceOnUse">
<stop stop-color="#DA1157"/>
<stop offset="0.5" stop-color="#6E2EF4"/>
<stop offset="1" stop-color="#2C6FF6"/>
</linearGradient>
<linearGradient id="paint5_linear_1955_16050" x1="1111.87" y1="159.535" x2="1620.29" y2="668.25" gradientUnits="userSpaceOnUse">
<stop stop-color="#DA1157"/>
<stop offset="0.5" stop-color="#6E2EF4"/>
<stop offset="1" stop-color="#2C6FF6"/>
</linearGradient>
<linearGradient id="paint6_linear_1955_16050" x1="1052.52" y1="670.439" x2="1560.94" y2="1179.15" gradientUnits="userSpaceOnUse">
<stop stop-color="#DA1157"/>
<stop offset="0.5" stop-color="#6E2EF4"/>
<stop offset="1" stop-color="#2C6FF6"/>
</linearGradient>
<linearGradient id="paint7_linear_1955_16050" x1="708.48" y1="758.17" x2="1216.9" y2="1266.88" gradientUnits="userSpaceOnUse">
<stop stop-color="#DA1157"/>
<stop offset="0.5" stop-color="#6E2EF4"/>
<stop offset="1" stop-color="#2C6FF6"/>
</linearGradient>
<linearGradient id="paint8_linear_1955_16050" x1="0.171876" y1="380.446" x2="1366.74" y2="380.446" gradientUnits="userSpaceOnUse">
<stop stop-color="#101010"/>
<stop offset="1" stop-color="#101010" stop-opacity="0"/>
</linearGradient>
<radialGradient id="paint9_radial_1955_16050" cx="0" cy="0" r="1" gradientUnits="userSpaceOnUse" gradientTransform="translate(1209.17 197) rotate(136.766) scale(597.786)">
<stop stop-color="#6E2EF4"/>
<stop offset="1" stop-color="#6E2EF4" stop-opacity="0"/>
</radialGradient>
<clipPath id="clip0_1955_16050">
<rect width="1370" height="799" fill="white" transform="translate(0.171875)"/>
</clipPath>
</defs>
</svg>
