<svg width="1370" height="799" viewBox="0 0 1370 799" fill="none" xmlns="http://www.w3.org/2000/svg">
<g clip-path="url(#clip0_2024_18013)">
<mask id="mask0_2024_18013" style="mask-type:alpha" maskUnits="userSpaceOnUse" x="160" y="-96" width="508" height="512">
<path d="M405.215 315.973L568.598 151.296C579.441 140.392 594.132 134.268 609.449 134.268C624.765 134.268 639.457 140.392 650.3 151.296C661.118 162.224 667.193 177.032 667.193 192.47C667.193 207.909 661.118 222.716 650.3 233.645L486.917 398.323C476.074 409.227 461.383 415.351 446.066 415.351C430.75 415.351 416.058 409.227 405.215 398.323C394.397 387.394 388.322 372.586 388.322 357.148C388.322 341.71 394.397 326.902 405.215 315.973ZM177.14 168.439C187.982 179.336 202.668 185.456 217.98 185.456C233.291 185.456 247.978 179.336 258.82 168.439L422.224 3.73973C433.036 -7.1883 439.107 -21.9915 439.107 -37.4243C439.107 -52.8572 433.036 -67.6604 422.224 -78.5884C411.381 -89.4923 396.69 -95.616 381.373 -95.616C366.056 -95.616 351.365 -89.4923 340.522 -78.5884L177.14 86.0894C166.322 97.0184 160.246 111.826 160.246 127.264C160.246 142.702 166.322 157.51 177.14 168.439ZM352.411 221.597C363.254 232.501 377.945 238.625 393.262 238.625C408.579 238.625 423.27 232.501 434.113 221.597L474.964 180.422C485.782 169.493 491.858 154.686 491.858 139.248C491.858 123.809 485.782 109.002 474.964 98.0727C464.121 87.1688 449.43 81.0451 434.113 81.0451C418.796 81.0451 404.105 87.1688 393.262 98.0727L352.411 139.248C341.593 150.176 335.517 164.984 335.517 180.422C335.517 195.861 341.593 210.668 352.411 221.597Z" fill="url(#paint0_linear_2024_18013)"/>
</mask>
<g mask="url(#mask0_2024_18013)">
<rect width="3.44043" height="550.595" rx="1.72021" transform="matrix(0.7064 -0.707813 0.7064 0.707813 297.816 -69.3174)" fill="#5225B0" fill-opacity="0.3"/>
<rect width="3.44043" height="550.595" rx="1.72021" transform="matrix(0.7064 -0.707813 0.7064 0.707813 94.1914 134.715)" fill="#5225B0" fill-opacity="0.3"/>
<rect width="3.44043" height="550.595" rx="1.72021" transform="matrix(0.7064 -0.707813 0.7064 0.707813 290.547 -62.0308)" fill="#5225B0" fill-opacity="0.3"/>
<rect width="3.44043" height="550.595" rx="1.72021" transform="matrix(0.7064 -0.707813 0.7064 0.707813 86.9219 142.002)" fill="#5225B0" fill-opacity="0.3"/>
<rect width="3.44043" height="550.595" rx="1.72021" transform="matrix(0.7064 -0.707813 0.7064 0.707813 283.273 -54.7437)" fill="#5225B0" fill-opacity="0.3"/>
<rect width="3.44043" height="550.595" rx="1.72021" transform="matrix(0.7064 -0.707813 0.7064 0.707813 79.6484 149.289)" fill="#5225B0" fill-opacity="0.3"/>
<rect width="3.44043" height="550.595" rx="1.72021" transform="matrix(0.7064 -0.707813 0.7064 0.707813 276 -47.457)" fill="#5225B0" fill-opacity="0.3"/>
<rect width="3.44043" height="550.595" rx="1.72021" transform="matrix(0.7064 -0.707813 0.7064 0.707813 72.375 156.576)" fill="#5225B0" fill-opacity="0.3"/>
<rect width="3.44043" height="550.595" rx="1.72021" transform="matrix(0.7064 -0.707813 0.7064 0.707813 268.727 -40.1702)" fill="#5225B0" fill-opacity="0.3"/>
<rect width="3.44043" height="550.595" rx="1.72021" transform="matrix(0.7064 -0.707813 0.7064 0.707813 65.1016 163.863)" fill="#5225B0" fill-opacity="0.3"/>
<rect width="3.44043" height="550.595" rx="1.72021" transform="matrix(0.7064 -0.707813 0.7064 0.707813 261.457 -32.8833)" fill="#5225B0" fill-opacity="0.3"/>
<rect width="3.44043" height="550.595" rx="1.72021" transform="matrix(0.7064 -0.707813 0.7064 0.707813 57.832 171.15)" fill="#5225B0" fill-opacity="0.3"/>
<rect width="3.44043" height="550.595" rx="1.72021" transform="matrix(0.7064 -0.707813 0.7064 0.707813 254.184 -25.5962)" fill="#5225B0" fill-opacity="0.3"/>
<rect width="3.44043" height="550.595" rx="1.72021" transform="matrix(0.7064 -0.707813 0.7064 0.707813 50.5586 178.437)" fill="#5225B0" fill-opacity="0.3"/>
<rect width="3.44043" height="550.595" rx="1.72021" transform="matrix(0.7064 -0.707813 0.7064 0.707813 246.91 -18.3096)" fill="#5225B0" fill-opacity="0.3"/>
<rect width="3.44043" height="550.595" rx="1.72021" transform="matrix(0.7064 -0.707813 0.7064 0.707813 43.2852 185.723)" fill="#5225B0" fill-opacity="0.3"/>
<rect width="3.44043" height="550.595" rx="1.72021" transform="matrix(0.7064 -0.707813 0.7064 0.707813 239.641 -11.0225)" fill="#5225B0" fill-opacity="0.3"/>
<rect width="3.44043" height="550.595" rx="1.72021" transform="matrix(0.7064 -0.707813 0.7064 0.707813 36.0117 193.01)" fill="#5225B0" fill-opacity="0.3"/>
<rect width="3.44043" height="550.595" rx="1.72021" transform="matrix(0.7064 -0.707813 0.7064 0.707813 232.367 -3.7356)" fill="#5225B0" fill-opacity="0.3"/>
<rect width="3.44043" height="550.595" rx="1.72021" transform="matrix(0.7064 -0.707813 0.7064 0.707813 28.7422 200.297)" fill="#5225B0" fill-opacity="0.3"/>
<rect width="3.44043" height="550.595" rx="1.72021" transform="matrix(0.7064 -0.707813 0.7064 0.707813 225.094 3.55127)" fill="#5225B0" fill-opacity="0.3"/>
<rect width="3.44043" height="550.595" rx="1.72021" transform="matrix(0.7064 -0.707813 0.7064 0.707813 21.4688 207.584)" fill="#5225B0" fill-opacity="0.3"/>
<rect width="3.44043" height="550.595" rx="1.72021" transform="matrix(0.7064 -0.707813 0.7064 0.707813 217.82 10.838)" fill="#5225B0" fill-opacity="0.3"/>
<rect width="3.44043" height="550.595" rx="1.72021" transform="matrix(0.7064 -0.707813 0.7064 0.707813 14.1953 214.871)" fill="#5225B0" fill-opacity="0.3"/>
<rect width="3.44043" height="550.595" rx="1.72021" transform="matrix(0.7064 -0.707813 0.7064 0.707813 210.551 18.125)" fill="#5225B0" fill-opacity="0.3"/>
<rect width="3.44043" height="550.595" rx="1.72021" transform="matrix(0.7064 -0.707813 0.7064 0.707813 6.92578 222.158)" fill="#5225B0" fill-opacity="0.3"/>
<rect width="3.44043" height="550.595" rx="1.72021" transform="matrix(0.7064 -0.707813 0.7064 0.707813 203.277 25.4117)" fill="#5225B0" fill-opacity="0.3"/>
<rect width="3.44043" height="550.595" rx="1.72021" transform="matrix(0.7064 -0.707813 0.7064 0.707813 -0.347656 229.445)" fill="#5225B0" fill-opacity="0.3"/>
<rect width="3.44043" height="550.595" rx="1.72021" transform="matrix(0.7064 -0.707813 0.7064 0.707813 196.004 32.6986)" fill="#5225B0" fill-opacity="0.3"/>
<rect width="3.44043" height="550.595" rx="1.72021" transform="matrix(0.7064 -0.707813 0.7064 0.707813 -7.62109 236.731)" fill="#5225B0" fill-opacity="0.3"/>
<rect width="3.44043" height="550.595" rx="1.72021" transform="matrix(0.7064 -0.707813 0.7064 0.707813 188.73 39.9857)" fill="#5225B0" fill-opacity="0.3"/>
<rect width="3.44043" height="550.595" rx="1.72021" transform="matrix(0.7064 -0.707813 0.7064 0.707813 -14.8906 244.018)" fill="#5225B0" fill-opacity="0.3"/>
<rect width="3.44043" height="550.595" rx="1.72021" transform="matrix(0.7064 -0.707813 0.7064 0.707813 181.461 47.2727)" fill="#5225B0" fill-opacity="0.3"/>
<rect width="3.44043" height="550.595" rx="1.72021" transform="matrix(0.7064 -0.707813 0.7064 0.707813 -22.1641 251.305)" fill="#5225B0" fill-opacity="0.3"/>
<rect width="3.44043" height="550.595" rx="1.72021" transform="matrix(0.7064 -0.707813 0.7064 0.707813 174.188 54.5594)" fill="#5225B0" fill-opacity="0.3"/>
<rect width="3.44043" height="550.595" rx="1.72021" transform="matrix(0.7064 -0.707813 0.7064 0.707813 -29.4375 258.592)" fill="#5225B0" fill-opacity="0.3"/>
<rect width="3.44043" height="550.595" rx="1.72021" transform="matrix(0.7064 -0.707813 0.7064 0.707813 166.914 61.8462)" fill="#5225B0" fill-opacity="0.3"/>
<rect width="3.44043" height="550.595" rx="1.72021" transform="matrix(0.7064 -0.707813 0.7064 0.707813 -36.7109 265.879)" fill="#5225B0" fill-opacity="0.3"/>
<rect width="3.44043" height="550.595" rx="1.72021" transform="matrix(0.7064 -0.707813 0.7064 0.707813 305.09 -76.6045)" fill="#5225B0" fill-opacity="0.3"/>
<rect width="3.44043" height="550.595" rx="1.72021" transform="matrix(0.7064 -0.707813 0.7064 0.707813 101.465 127.428)" fill="#5225B0" fill-opacity="0.3"/>
<rect width="3.44043" height="550.595" rx="1.72021" transform="matrix(0.7064 -0.707813 0.7064 0.707813 312.363 -83.8914)" fill="#5225B0" fill-opacity="0.3"/>
<rect width="3.44043" height="550.595" rx="1.72021" transform="matrix(0.7064 -0.707813 0.7064 0.707813 108.734 120.141)" fill="#5225B0" fill-opacity="0.3"/>
<rect width="3.44043" height="550.595" rx="1.72021" transform="matrix(0.7064 -0.707813 0.7064 0.707813 319.633 -91.1782)" fill="#5225B0" fill-opacity="0.3"/>
<rect width="3.44043" height="550.595" rx="1.72021" transform="matrix(0.7064 -0.707813 0.7064 0.707813 116.008 112.854)" fill="#5225B0" fill-opacity="0.3"/>
<rect width="3.44043" height="550.595" rx="1.72021" transform="matrix(0.7064 -0.707813 0.7064 0.707813 326.906 -98.4653)" fill="#5225B0" fill-opacity="0.3"/>
<rect width="3.44043" height="550.595" rx="1.72021" transform="matrix(0.7064 -0.707813 0.7064 0.707813 123.281 105.568)" fill="#5225B0" fill-opacity="0.3"/>
<rect width="3.44043" height="550.595" rx="1.72021" transform="matrix(0.7064 -0.707813 0.7064 0.707813 334.18 -105.752)" fill="#5225B0" fill-opacity="0.3"/>
<rect width="3.44043" height="550.595" rx="1.72021" transform="matrix(0.7064 -0.707813 0.7064 0.707813 130.555 98.281)" fill="#5225B0" fill-opacity="0.3"/>
<rect width="3.44043" height="550.595" rx="1.72021" transform="matrix(0.7064 -0.707813 0.7064 0.707813 341.449 -113.039)" fill="#5225B0" fill-opacity="0.3"/>
<rect width="3.44043" height="550.595" rx="1.72021" transform="matrix(0.7064 -0.707813 0.7064 0.707813 137.824 90.9939)" fill="#5225B0" fill-opacity="0.3"/>
<rect width="3.44043" height="550.595" rx="1.72021" transform="matrix(0.7064 -0.707813 0.7064 0.707813 348.723 -120.326)" fill="#5225B0" fill-opacity="0.3"/>
<rect width="3.44043" height="550.595" rx="1.72021" transform="matrix(0.7064 -0.707813 0.7064 0.707813 145.098 83.7069)" fill="#5225B0" fill-opacity="0.3"/>
<rect width="3.44043" height="550.595" rx="1.72021" transform="matrix(0.7064 -0.707813 0.7064 0.707813 355.996 -127.613)" fill="#5225B0" fill-opacity="0.3"/>
<rect width="3.44043" height="550.595" rx="1.72021" transform="matrix(0.7064 -0.707813 0.7064 0.707813 152.371 76.4199)" fill="#5225B0" fill-opacity="0.3"/>
<rect width="3.44043" height="550.595" rx="1.72021" transform="matrix(0.7064 -0.707813 0.7064 0.707813 363.266 -134.899)" fill="#5225B0" fill-opacity="0.3"/>
<rect width="3.44043" height="550.595" rx="1.72021" transform="matrix(0.7064 -0.707813 0.7064 0.707813 159.641 69.1332)" fill="#5225B0" fill-opacity="0.3"/>
</g>
<mask id="mask1_2024_18013" style="mask-type:alpha" maskUnits="userSpaceOnUse" x="429" y="315" width="508" height="512">
<path d="M674.43 727.105L837.813 562.427C848.655 551.523 863.347 545.399 878.664 545.399C893.98 545.399 908.672 551.523 919.514 562.427C930.333 573.356 936.408 588.164 936.408 603.602C936.408 619.04 930.333 633.848 919.514 644.777L756.132 809.455C745.289 820.358 730.598 826.482 715.281 826.482C699.964 826.482 685.273 820.358 674.43 809.455C663.612 798.526 657.537 783.718 657.537 768.28C657.537 752.841 663.612 738.034 674.43 727.105ZM446.355 579.571C457.197 590.468 471.883 596.587 487.195 596.587C502.506 596.587 517.193 590.468 528.035 579.571L691.439 414.871C702.25 403.943 708.322 389.14 708.322 373.707C708.322 358.274 702.25 343.471 691.439 332.543C680.596 321.639 665.905 315.515 650.588 315.515C635.271 315.515 620.58 321.639 609.737 332.543L446.355 497.221C435.536 508.15 429.461 522.958 429.461 538.396C429.461 553.834 435.536 568.642 446.355 579.571ZM621.626 632.729C632.469 643.633 647.16 649.756 662.477 649.756C677.794 649.756 692.485 643.633 703.328 632.729L744.179 591.554C754.997 580.625 761.072 565.817 761.072 550.379C761.072 534.941 754.997 520.133 744.179 509.204C733.336 498.3 718.645 492.176 703.328 492.176C688.011 492.176 673.32 498.3 662.477 509.204L621.626 550.379C610.808 561.308 604.732 576.116 604.732 591.554C604.732 606.992 610.808 621.8 621.626 632.729Z" fill="url(#paint1_linear_2024_18013)"/>
</mask>
<g mask="url(#mask1_2024_18013)">
<rect width="3.44043" height="550.595" rx="1.72021" transform="matrix(0.7064 -0.707813 0.7064 0.707813 567.035 341.814)" fill="#5225B0" fill-opacity="0.3"/>
<rect width="3.44043" height="550.595" rx="1.72021" transform="matrix(0.7064 -0.707813 0.7064 0.707813 363.41 545.847)" fill="#5225B0" fill-opacity="0.3"/>
<rect width="3.44043" height="550.595" rx="1.72021" transform="matrix(0.7064 -0.707813 0.7064 0.707813 559.766 349.101)" fill="#5225B0" fill-opacity="0.3"/>
<rect width="3.44043" height="550.595" rx="1.72021" transform="matrix(0.7064 -0.707813 0.7064 0.707813 356.141 553.134)" fill="#5225B0" fill-opacity="0.3"/>
<rect width="3.44043" height="550.595" rx="1.72021" transform="matrix(0.7064 -0.707813 0.7064 0.707813 552.492 356.388)" fill="#5225B0" fill-opacity="0.3"/>
<rect width="3.44043" height="550.595" rx="1.72021" transform="matrix(0.7064 -0.707813 0.7064 0.707813 348.867 560.42)" fill="#5225B0" fill-opacity="0.3"/>
<rect width="3.44043" height="550.595" rx="1.72021" transform="matrix(0.7064 -0.707813 0.7064 0.707813 545.219 363.674)" fill="#5225B0" fill-opacity="0.3"/>
<rect width="3.44043" height="550.595" rx="1.72021" transform="matrix(0.7064 -0.707813 0.7064 0.707813 341.594 567.707)" fill="#5225B0" fill-opacity="0.3"/>
<rect width="3.44043" height="550.595" rx="1.72021" transform="matrix(0.7064 -0.707813 0.7064 0.707813 537.945 370.961)" fill="#5225B0" fill-opacity="0.3"/>
<rect width="3.44043" height="550.595" rx="1.72021" transform="matrix(0.7064 -0.707813 0.7064 0.707813 334.32 574.994)" fill="#5225B0" fill-opacity="0.3"/>
<rect width="3.44043" height="550.595" rx="1.72021" transform="matrix(0.7064 -0.707813 0.7064 0.707813 530.676 378.248)" fill="#5225B0" fill-opacity="0.3"/>
<rect width="3.44043" height="550.595" rx="1.72021" transform="matrix(0.7064 -0.707813 0.7064 0.707813 327.051 582.281)" fill="#5225B0" fill-opacity="0.3"/>
<rect width="3.44043" height="550.595" rx="1.72021" transform="matrix(0.7064 -0.707813 0.7064 0.707813 523.402 385.535)" fill="#5225B0" fill-opacity="0.3"/>
<rect width="3.44043" height="550.595" rx="1.72021" transform="matrix(0.7064 -0.707813 0.7064 0.707813 319.777 589.568)" fill="#5225B0" fill-opacity="0.3"/>
<rect width="3.44043" height="550.595" rx="1.72021" transform="matrix(0.7064 -0.707813 0.7064 0.707813 516.129 392.822)" fill="#5225B0" fill-opacity="0.3"/>
<rect width="3.44043" height="550.595" rx="1.72021" transform="matrix(0.7064 -0.707813 0.7064 0.707813 312.504 596.855)" fill="#5225B0" fill-opacity="0.3"/>
<rect width="3.44043" height="550.595" rx="1.72021" transform="matrix(0.7064 -0.707813 0.7064 0.707813 508.859 400.109)" fill="#5225B0" fill-opacity="0.3"/>
<rect width="3.44043" height="550.595" rx="1.72021" transform="matrix(0.7064 -0.707813 0.7064 0.707813 305.23 604.142)" fill="#5225B0" fill-opacity="0.3"/>
<rect width="3.44043" height="550.595" rx="1.72021" transform="matrix(0.7064 -0.707813 0.7064 0.707813 501.586 407.396)" fill="#5225B0" fill-opacity="0.3"/>
<rect width="3.44043" height="550.595" rx="1.72021" transform="matrix(0.7064 -0.707813 0.7064 0.707813 297.961 611.429)" fill="#5225B0" fill-opacity="0.3"/>
<rect width="3.44043" height="550.595" rx="1.72021" transform="matrix(0.7064 -0.707813 0.7064 0.707813 494.312 414.683)" fill="#5225B0" fill-opacity="0.3"/>
<rect width="3.44043" height="550.595" rx="1.72021" transform="matrix(0.7064 -0.707813 0.7064 0.707813 290.688 618.716)" fill="#5225B0" fill-opacity="0.3"/>
<rect width="3.44043" height="550.595" rx="1.72021" transform="matrix(0.7064 -0.707813 0.7064 0.707813 487.039 421.97)" fill="#5225B0" fill-opacity="0.3"/>
<rect width="3.44043" height="550.595" rx="1.72021" transform="matrix(0.7064 -0.707813 0.7064 0.707813 283.414 626.003)" fill="#5225B0" fill-opacity="0.3"/>
<rect width="3.44043" height="550.595" rx="1.72021" transform="matrix(0.7064 -0.707813 0.7064 0.707813 479.77 429.257)" fill="#5225B0" fill-opacity="0.3"/>
<rect width="3.44043" height="550.595" rx="1.72021" transform="matrix(0.7064 -0.707813 0.7064 0.707813 276.145 633.289)" fill="#5225B0" fill-opacity="0.3"/>
<rect width="3.44043" height="550.595" rx="1.72021" transform="matrix(0.7064 -0.707813 0.7064 0.707813 472.496 436.543)" fill="#5225B0" fill-opacity="0.3"/>
<rect width="3.44043" height="550.595" rx="1.72021" transform="matrix(0.7064 -0.707813 0.7064 0.707813 268.871 640.576)" fill="#5225B0" fill-opacity="0.3"/>
<rect width="3.44043" height="550.595" rx="1.72021" transform="matrix(0.7064 -0.707813 0.7064 0.707813 465.223 443.83)" fill="#5225B0" fill-opacity="0.3"/>
<rect width="3.44043" height="550.595" rx="1.72021" transform="matrix(0.7064 -0.707813 0.7064 0.707813 261.598 647.863)" fill="#5225B0" fill-opacity="0.3"/>
<rect width="3.44043" height="550.595" rx="1.72021" transform="matrix(0.7064 -0.707813 0.7064 0.707813 457.949 451.117)" fill="#5225B0" fill-opacity="0.3"/>
<rect width="3.44043" height="550.595" rx="1.72021" transform="matrix(0.7064 -0.707813 0.7064 0.707813 254.328 655.15)" fill="#5225B0" fill-opacity="0.3"/>
<rect width="3.44043" height="550.595" rx="1.72021" transform="matrix(0.7064 -0.707813 0.7064 0.707813 450.68 458.404)" fill="#5225B0" fill-opacity="0.3"/>
<rect width="3.44043" height="550.595" rx="1.72021" transform="matrix(0.7064 -0.707813 0.7064 0.707813 247.055 662.437)" fill="#5225B0" fill-opacity="0.3"/>
<rect width="3.44043" height="550.595" rx="1.72021" transform="matrix(0.7064 -0.707813 0.7064 0.707813 443.406 465.691)" fill="#5225B0" fill-opacity="0.3"/>
<rect width="3.44043" height="550.595" rx="1.72021" transform="matrix(0.7064 -0.707813 0.7064 0.707813 239.781 669.724)" fill="#5225B0" fill-opacity="0.3"/>
<rect width="3.44043" height="550.595" rx="1.72021" transform="matrix(0.7064 -0.707813 0.7064 0.707813 436.133 472.978)" fill="#5225B0" fill-opacity="0.3"/>
<rect width="3.44043" height="550.595" rx="1.72021" transform="matrix(0.7064 -0.707813 0.7064 0.707813 232.508 677.011)" fill="#5225B0" fill-opacity="0.3"/>
<rect width="3.44043" height="550.595" rx="1.72021" transform="matrix(0.7064 -0.707813 0.7064 0.707813 574.309 334.527)" fill="#5225B0" fill-opacity="0.3"/>
<rect width="3.44043" height="550.595" rx="1.72021" transform="matrix(0.7064 -0.707813 0.7064 0.707813 370.684 538.56)" fill="#5225B0" fill-opacity="0.3"/>
<rect width="3.44043" height="550.595" rx="1.72021" transform="matrix(0.7064 -0.707813 0.7064 0.707813 581.582 327.24)" fill="#5225B0" fill-opacity="0.3"/>
<rect width="3.44043" height="550.595" rx="1.72021" transform="matrix(0.7064 -0.707813 0.7064 0.707813 377.953 531.273)" fill="#5225B0" fill-opacity="0.3"/>
<rect width="3.44043" height="550.595" rx="1.72021" transform="matrix(0.7064 -0.707813 0.7064 0.707813 588.852 319.953)" fill="#5225B0" fill-opacity="0.3"/>
<rect width="3.44043" height="550.595" rx="1.72021" transform="matrix(0.7064 -0.707813 0.7064 0.707813 385.227 523.986)" fill="#5225B0" fill-opacity="0.3"/>
<rect width="3.44043" height="550.595" rx="1.72021" transform="matrix(0.7064 -0.707813 0.7064 0.707813 596.125 312.666)" fill="#5225B0" fill-opacity="0.3"/>
<rect width="3.44043" height="550.595" rx="1.72021" transform="matrix(0.7064 -0.707813 0.7064 0.707813 392.5 516.699)" fill="#5225B0" fill-opacity="0.3"/>
<rect width="3.44043" height="550.595" rx="1.72021" transform="matrix(0.7064 -0.707813 0.7064 0.707813 603.398 305.38)" fill="#5225B0" fill-opacity="0.3"/>
<rect width="3.44043" height="550.595" rx="1.72021" transform="matrix(0.7064 -0.707813 0.7064 0.707813 399.773 509.412)" fill="#5225B0" fill-opacity="0.3"/>
<rect width="3.44043" height="550.595" rx="1.72021" transform="matrix(0.7064 -0.707813 0.7064 0.707813 610.668 298.093)" fill="#5225B0" fill-opacity="0.3"/>
<rect width="3.44043" height="550.595" rx="1.72021" transform="matrix(0.7064 -0.707813 0.7064 0.707813 407.043 502.125)" fill="#5225B0" fill-opacity="0.3"/>
<rect width="3.44043" height="550.595" rx="1.72021" transform="matrix(0.7064 -0.707813 0.7064 0.707813 617.941 290.806)" fill="#5225B0" fill-opacity="0.3"/>
<rect width="3.44043" height="550.595" rx="1.72021" transform="matrix(0.7064 -0.707813 0.7064 0.707813 414.316 494.839)" fill="#5225B0" fill-opacity="0.3"/>
<rect width="3.44043" height="550.595" rx="1.72021" transform="matrix(0.7064 -0.707813 0.7064 0.707813 625.215 283.519)" fill="#5225B0" fill-opacity="0.3"/>
<rect width="3.44043" height="550.595" rx="1.72021" transform="matrix(0.7064 -0.707813 0.7064 0.707813 421.59 487.552)" fill="#5225B0" fill-opacity="0.3"/>
<rect width="3.44043" height="550.595" rx="1.72021" transform="matrix(0.7064 -0.707813 0.7064 0.707813 632.484 276.232)" fill="#5225B0" fill-opacity="0.3"/>
<rect width="3.44043" height="550.595" rx="1.72021" transform="matrix(0.7064 -0.707813 0.7064 0.707813 428.859 480.265)" fill="#5225B0" fill-opacity="0.3"/>
</g>
<mask id="mask2_2024_18013" style="mask-type:alpha" maskUnits="userSpaceOnUse" x="487" y="-182" width="508" height="512">
<path d="M732.313 230.177L895.695 65.4992C906.538 54.5953 921.23 48.4716 936.546 48.4716C951.863 48.4716 966.554 54.5953 977.397 65.4992C988.215 76.4281 994.291 91.2359 994.291 106.674C994.291 122.112 988.215 136.92 977.397 147.849L814.015 312.527C803.172 323.431 788.481 329.554 773.164 329.554C757.847 329.554 743.156 323.431 732.313 312.527C721.495 301.598 715.419 286.79 715.419 271.352C715.419 255.914 721.495 241.106 732.313 230.177ZM504.237 82.6428C515.079 93.5401 529.766 99.6596 545.078 99.6596C560.389 99.6596 575.076 93.5401 585.918 82.6428L749.322 -82.0567C760.133 -92.9847 766.205 -107.788 766.205 -123.221C766.205 -138.654 760.133 -153.457 749.322 -164.385C738.479 -175.289 723.787 -181.412 708.471 -181.412C693.154 -181.412 678.463 -175.289 667.62 -164.385L504.237 0.29306C493.419 11.222 487.344 26.0298 487.344 41.4679C487.344 56.9061 493.419 71.7139 504.237 82.6428ZM679.509 135.801C690.352 146.705 705.043 152.828 720.36 152.828C735.676 152.828 750.368 146.705 761.211 135.801L802.062 94.626C812.88 83.6971 818.955 68.8893 818.955 53.4512C818.955 38.013 812.88 23.2052 802.062 12.2763C791.219 1.37241 776.527 -4.75127 761.211 -4.75127C745.894 -4.75127 731.203 1.37241 720.36 12.2763L679.509 53.4512C668.691 64.3801 662.615 79.1879 662.615 94.626C662.615 110.064 668.691 124.872 679.509 135.801Z" fill="url(#paint2_linear_2024_18013)"/>
</mask>
<g mask="url(#mask2_2024_18013)">
<rect width="3.44043" height="550.595" rx="1.72021" transform="matrix(0.7064 -0.707813 0.7064 0.707813 624.918 -155.114)" fill="#5225B0" fill-opacity="0.3"/>
<rect width="3.44043" height="550.595" rx="1.72021" transform="matrix(0.7064 -0.707813 0.7064 0.707813 421.293 48.9191)" fill="#5225B0" fill-opacity="0.3"/>
<rect width="3.44043" height="550.595" rx="1.72021" transform="matrix(0.7064 -0.707813 0.7064 0.707813 617.648 -147.827)" fill="#5225B0" fill-opacity="0.3"/>
<rect width="3.44043" height="550.595" rx="1.72021" transform="matrix(0.7064 -0.707813 0.7064 0.707813 414.023 56.2059)" fill="#5225B0" fill-opacity="0.3"/>
<rect width="3.44043" height="550.595" rx="1.72021" transform="matrix(0.7064 -0.707813 0.7064 0.707813 610.375 -140.54)" fill="#5225B0" fill-opacity="0.3"/>
<rect width="3.44043" height="550.595" rx="1.72021" transform="matrix(0.7064 -0.707813 0.7064 0.707813 406.75 63.4928)" fill="#5225B0" fill-opacity="0.3"/>
<rect width="3.44043" height="550.595" rx="1.72021" transform="matrix(0.7064 -0.707813 0.7064 0.707813 603.102 -133.253)" fill="#5225B0" fill-opacity="0.3"/>
<rect width="3.44043" height="550.595" rx="1.72021" transform="matrix(0.7064 -0.707813 0.7064 0.707813 399.477 70.7797)" fill="#5225B0" fill-opacity="0.3"/>
<rect width="3.44043" height="550.595" rx="1.72021" transform="matrix(0.7064 -0.707813 0.7064 0.707813 595.828 -125.966)" fill="#5225B0" fill-opacity="0.3"/>
<rect width="3.44043" height="550.595" rx="1.72021" transform="matrix(0.7064 -0.707813 0.7064 0.707813 392.203 78.0667)" fill="#5225B0" fill-opacity="0.3"/>
<rect width="3.44043" height="550.595" rx="1.72021" transform="matrix(0.7064 -0.707813 0.7064 0.707813 588.559 -118.679)" fill="#5225B0" fill-opacity="0.3"/>
<rect width="3.44043" height="550.595" rx="1.72021" transform="matrix(0.7064 -0.707813 0.7064 0.707813 384.934 85.3535)" fill="#5225B0" fill-opacity="0.3"/>
<rect width="3.44043" height="550.595" rx="1.72021" transform="matrix(0.7064 -0.707813 0.7064 0.707813 581.285 -111.392)" fill="#5225B0" fill-opacity="0.3"/>
<rect width="3.44043" height="550.595" rx="1.72021" transform="matrix(0.7064 -0.707813 0.7064 0.707813 377.66 92.6404)" fill="#5225B0" fill-opacity="0.3"/>
<rect width="3.44043" height="550.595" rx="1.72021" transform="matrix(0.7064 -0.707813 0.7064 0.707813 574.012 -104.105)" fill="#5225B0" fill-opacity="0.3"/>
<rect width="3.44043" height="550.595" rx="1.72021" transform="matrix(0.7064 -0.707813 0.7064 0.707813 370.387 99.9272)" fill="#5225B0" fill-opacity="0.3"/>
<rect width="3.44043" height="550.595" rx="1.72021" transform="matrix(0.7064 -0.707813 0.7064 0.707813 566.742 -96.8186)" fill="#5225B0" fill-opacity="0.3"/>
<rect width="3.44043" height="550.595" rx="1.72021" transform="matrix(0.7064 -0.707813 0.7064 0.707813 363.113 107.214)" fill="#5225B0" fill-opacity="0.3"/>
<rect width="3.44043" height="550.595" rx="1.72021" transform="matrix(0.7064 -0.707813 0.7064 0.707813 559.469 -89.5315)" fill="#5225B0" fill-opacity="0.3"/>
<rect width="3.44043" height="550.595" rx="1.72021" transform="matrix(0.7064 -0.707813 0.7064 0.707813 355.844 114.501)" fill="#5225B0" fill-opacity="0.3"/>
<rect width="3.44043" height="550.595" rx="1.72021" transform="matrix(0.7064 -0.707813 0.7064 0.707813 552.195 -82.2449)" fill="#5225B0" fill-opacity="0.3"/>
<rect width="3.44043" height="550.595" rx="1.72021" transform="matrix(0.7064 -0.707813 0.7064 0.707813 348.57 121.788)" fill="#5225B0" fill-opacity="0.3"/>
<rect width="3.44043" height="550.595" rx="1.72021" transform="matrix(0.7064 -0.707813 0.7064 0.707813 544.922 -74.958)" fill="#5225B0" fill-opacity="0.3"/>
<rect width="3.44043" height="550.595" rx="1.72021" transform="matrix(0.7064 -0.707813 0.7064 0.707813 341.297 129.075)" fill="#5225B0" fill-opacity="0.3"/>
<rect width="3.44043" height="550.595" rx="1.72021" transform="matrix(0.7064 -0.707813 0.7064 0.707813 537.652 -67.6711)" fill="#5225B0" fill-opacity="0.3"/>
<rect width="3.44043" height="550.595" rx="1.72021" transform="matrix(0.7064 -0.707813 0.7064 0.707813 334.027 136.362)" fill="#5225B0" fill-opacity="0.3"/>
<rect width="3.44043" height="550.595" rx="1.72021" transform="matrix(0.7064 -0.707813 0.7064 0.707813 530.379 -60.3843)" fill="#5225B0" fill-opacity="0.3"/>
<rect width="3.44043" height="550.595" rx="1.72021" transform="matrix(0.7064 -0.707813 0.7064 0.707813 326.754 143.649)" fill="#5225B0" fill-opacity="0.3"/>
<rect width="3.44043" height="550.595" rx="1.72021" transform="matrix(0.7064 -0.707813 0.7064 0.707813 523.105 -53.0974)" fill="#5225B0" fill-opacity="0.3"/>
<rect width="3.44043" height="550.595" rx="1.72021" transform="matrix(0.7064 -0.707813 0.7064 0.707813 319.48 150.935)" fill="#5225B0" fill-opacity="0.3"/>
<rect width="3.44043" height="550.595" rx="1.72021" transform="matrix(0.7064 -0.707813 0.7064 0.707813 515.832 -45.8103)" fill="#5225B0" fill-opacity="0.3"/>
<rect width="3.44043" height="550.595" rx="1.72021" transform="matrix(0.7064 -0.707813 0.7064 0.707813 312.211 158.222)" fill="#5225B0" fill-opacity="0.3"/>
<rect width="3.44043" height="550.595" rx="1.72021" transform="matrix(0.7064 -0.707813 0.7064 0.707813 508.562 -38.5234)" fill="#5225B0" fill-opacity="0.3"/>
<rect width="3.44043" height="550.595" rx="1.72021" transform="matrix(0.7064 -0.707813 0.7064 0.707813 304.938 165.509)" fill="#5225B0" fill-opacity="0.3"/>
<rect width="3.44043" height="550.595" rx="1.72021" transform="matrix(0.7064 -0.707813 0.7064 0.707813 501.289 -31.2366)" fill="#5225B0" fill-opacity="0.3"/>
<rect width="3.44043" height="550.595" rx="1.72021" transform="matrix(0.7064 -0.707813 0.7064 0.707813 297.664 172.796)" fill="#5225B0" fill-opacity="0.3"/>
<rect width="3.44043" height="550.595" rx="1.72021" transform="matrix(0.7064 -0.707813 0.7064 0.707813 494.016 -23.95)" fill="#5225B0" fill-opacity="0.3"/>
<rect width="3.44043" height="550.595" rx="1.72021" transform="matrix(0.7064 -0.707813 0.7064 0.707813 290.391 180.083)" fill="#5225B0" fill-opacity="0.3"/>
<rect width="3.44043" height="550.595" rx="1.72021" transform="matrix(0.7064 -0.707813 0.7064 0.707813 632.191 -162.4)" fill="#5225B0" fill-opacity="0.3"/>
<rect width="3.44043" height="550.595" rx="1.72021" transform="matrix(0.7064 -0.707813 0.7064 0.707813 428.566 41.6321)" fill="#5225B0" fill-opacity="0.3"/>
<rect width="3.44043" height="550.595" rx="1.72021" transform="matrix(0.7064 -0.707813 0.7064 0.707813 639.465 -169.687)" fill="#5225B0" fill-opacity="0.3"/>
<rect width="3.44043" height="550.595" rx="1.72021" transform="matrix(0.7064 -0.707813 0.7064 0.707813 435.836 34.3452)" fill="#5225B0" fill-opacity="0.3"/>
<rect width="3.44043" height="550.595" rx="1.72021" transform="matrix(0.7064 -0.707813 0.7064 0.707813 646.734 -176.974)" fill="#5225B0" fill-opacity="0.3"/>
<rect width="3.44043" height="550.595" rx="1.72021" transform="matrix(0.7064 -0.707813 0.7064 0.707813 443.109 27.0583)" fill="#5225B0" fill-opacity="0.3"/>
<rect width="3.44043" height="550.595" rx="1.72021" transform="matrix(0.7064 -0.707813 0.7064 0.707813 654.008 -184.261)" fill="#5225B0" fill-opacity="0.3"/>
<rect width="3.44043" height="550.595" rx="1.72021" transform="matrix(0.7064 -0.707813 0.7064 0.707813 450.383 19.7715)" fill="#5225B0" fill-opacity="0.3"/>
<rect width="3.44043" height="550.595" rx="1.72021" transform="matrix(0.7064 -0.707813 0.7064 0.707813 661.281 -191.548)" fill="#5225B0" fill-opacity="0.3"/>
<rect width="3.44043" height="550.595" rx="1.72021" transform="matrix(0.7064 -0.707813 0.7064 0.707813 457.656 12.4849)" fill="#5225B0" fill-opacity="0.3"/>
<rect width="3.44043" height="550.595" rx="1.72021" transform="matrix(0.7064 -0.707813 0.7064 0.707813 668.551 -198.835)" fill="#5225B0" fill-opacity="0.3"/>
<rect width="3.44043" height="550.595" rx="1.72021" transform="matrix(0.7064 -0.707813 0.7064 0.707813 464.926 5.19775)" fill="#5225B0" fill-opacity="0.3"/>
<rect width="3.44043" height="550.595" rx="1.72021" transform="matrix(0.7064 -0.707813 0.7064 0.707813 675.824 -206.122)" fill="#5225B0" fill-opacity="0.3"/>
<rect width="3.44043" height="550.595" rx="1.72021" transform="matrix(0.7064 -0.707813 0.7064 0.707813 472.199 -2.08911)" fill="#5225B0" fill-opacity="0.3"/>
<rect width="3.44043" height="550.595" rx="1.72021" transform="matrix(0.7064 -0.707813 0.7064 0.707813 683.098 -213.409)" fill="#5225B0" fill-opacity="0.3"/>
<rect width="3.44043" height="550.595" rx="1.72021" transform="matrix(0.7064 -0.707813 0.7064 0.707813 479.473 -9.37622)" fill="#5225B0" fill-opacity="0.3"/>
<rect width="3.44043" height="550.595" rx="1.72021" transform="matrix(0.7064 -0.707813 0.7064 0.707813 690.367 -220.696)" fill="#5225B0" fill-opacity="0.3"/>
<rect width="3.44043" height="550.595" rx="1.72021" transform="matrix(0.7064 -0.707813 0.7064 0.707813 486.742 -16.6628)" fill="#5225B0" fill-opacity="0.3"/>
</g>
<mask id="mask3_2024_18013" style="mask-type:alpha" maskUnits="userSpaceOnUse" x="830" y="-268" width="508" height="512">
<path d="M1075.27 143.93L1238.65 -20.7477C1249.5 -31.6516 1264.19 -37.7752 1279.5 -37.7752C1294.82 -37.7752 1309.51 -31.6516 1320.35 -20.7477C1331.17 -9.81873 1337.25 4.98911 1337.25 20.4272C1337.25 35.8654 1331.17 50.6732 1320.35 61.6021L1156.97 226.28C1146.13 237.184 1131.44 243.308 1116.12 243.308C1100.8 243.308 1086.11 237.184 1075.27 226.28C1064.45 215.351 1058.38 200.543 1058.38 185.105C1058.38 169.667 1064.45 154.859 1075.27 143.93ZM847.194 -3.60403C858.036 7.29327 872.723 13.4128 888.035 13.4128C903.346 13.4128 918.033 7.29327 928.875 -3.60403L1092.28 -168.303C1103.09 -179.232 1109.16 -194.035 1109.16 -209.468C1109.16 -224.9 1103.09 -239.704 1092.28 -250.632C1081.44 -261.536 1066.74 -267.659 1051.43 -267.659C1036.11 -267.659 1021.42 -261.536 1010.58 -250.632L847.194 -85.9538C836.376 -75.0248 830.301 -60.217 830.301 -44.7789C830.301 -29.3407 836.376 -14.533 847.194 -3.60403ZM1022.47 49.5541C1033.31 60.458 1048 66.5816 1063.32 66.5816C1078.63 66.5816 1093.32 60.458 1104.17 49.5541L1145.02 8.37921C1155.84 -2.54971 1161.91 -17.3575 1161.91 -32.7956C1161.91 -48.2338 1155.84 -63.0416 1145.02 -73.9705C1134.18 -84.8744 1119.48 -90.9981 1104.17 -90.9981C1088.85 -90.9981 1074.16 -84.8744 1063.32 -73.9705L1022.47 -32.7956C1011.65 -21.8667 1005.57 -7.05893 1005.57 8.37921C1005.57 23.8174 1011.65 38.6252 1022.47 49.5541Z" fill="url(#paint3_linear_2024_18013)"/>
</mask>
<g mask="url(#mask3_2024_18013)">
<rect width="3.44043" height="550.595" rx="1.72021" transform="matrix(0.7064 -0.707813 0.7064 0.707813 967.875 -241.36)" fill="#5225B0" fill-opacity="0.3"/>
<rect width="3.44043" height="550.595" rx="1.72021" transform="matrix(0.7064 -0.707813 0.7064 0.707813 764.25 -37.3279)" fill="#5225B0" fill-opacity="0.3"/>
<rect width="3.44043" height="550.595" rx="1.72021" transform="matrix(0.7064 -0.707813 0.7064 0.707813 960.605 -234.074)" fill="#5225B0" fill-opacity="0.3"/>
<rect width="3.44043" height="550.595" rx="1.72021" transform="matrix(0.7064 -0.707813 0.7064 0.707813 756.98 -30.041)" fill="#5225B0" fill-opacity="0.3"/>
<rect width="3.44043" height="550.595" rx="1.72021" transform="matrix(0.7064 -0.707813 0.7064 0.707813 953.332 -226.787)" fill="#5225B0" fill-opacity="0.3"/>
<rect width="3.44043" height="550.595" rx="1.72021" transform="matrix(0.7064 -0.707813 0.7064 0.707813 749.707 -22.7542)" fill="#5225B0" fill-opacity="0.3"/>
<rect width="3.44043" height="550.595" rx="1.72021" transform="matrix(0.7064 -0.707813 0.7064 0.707813 946.059 -219.5)" fill="#5225B0" fill-opacity="0.3"/>
<rect width="3.44043" height="550.595" rx="1.72021" transform="matrix(0.7064 -0.707813 0.7064 0.707813 742.434 -15.467)" fill="#5225B0" fill-opacity="0.3"/>
<rect width="3.44043" height="550.595" rx="1.72021" transform="matrix(0.7064 -0.707813 0.7064 0.707813 938.785 -212.213)" fill="#5225B0" fill-opacity="0.3"/>
<rect width="3.44043" height="550.595" rx="1.72021" transform="matrix(0.7064 -0.707813 0.7064 0.707813 735.16 -8.18018)" fill="#5225B0" fill-opacity="0.3"/>
<rect width="3.44043" height="550.595" rx="1.72021" transform="matrix(0.7064 -0.707813 0.7064 0.707813 931.516 -204.926)" fill="#5225B0" fill-opacity="0.3"/>
<rect width="3.44043" height="550.595" rx="1.72021" transform="matrix(0.7064 -0.707813 0.7064 0.707813 727.891 -0.893433)" fill="#5225B0" fill-opacity="0.3"/>
<rect width="3.44043" height="550.595" rx="1.72021" transform="matrix(0.7064 -0.707813 0.7064 0.707813 924.242 -197.639)" fill="#5225B0" fill-opacity="0.3"/>
<rect width="3.44043" height="550.595" rx="1.72021" transform="matrix(0.7064 -0.707813 0.7064 0.707813 720.617 6.39355)" fill="#5225B0" fill-opacity="0.3"/>
<rect width="3.44043" height="550.595" rx="1.72021" transform="matrix(0.7064 -0.707813 0.7064 0.707813 916.969 -190.353)" fill="#5225B0" fill-opacity="0.3"/>
<rect width="3.44043" height="550.595" rx="1.72021" transform="matrix(0.7064 -0.707813 0.7064 0.707813 713.344 13.6803)" fill="#5225B0" fill-opacity="0.3"/>
<rect width="3.44043" height="550.595" rx="1.72021" transform="matrix(0.7064 -0.707813 0.7064 0.707813 909.699 -183.065)" fill="#5225B0" fill-opacity="0.3"/>
<rect width="3.44043" height="550.595" rx="1.72021" transform="matrix(0.7064 -0.707813 0.7064 0.707813 706.07 20.9673)" fill="#5225B0" fill-opacity="0.3"/>
<rect width="3.44043" height="550.595" rx="1.72021" transform="matrix(0.7064 -0.707813 0.7064 0.707813 902.426 -175.779)" fill="#5225B0" fill-opacity="0.3"/>
<rect width="3.44043" height="550.595" rx="1.72021" transform="matrix(0.7064 -0.707813 0.7064 0.707813 698.801 28.254)" fill="#5225B0" fill-opacity="0.3"/>
<rect width="3.44043" height="550.595" rx="1.72021" transform="matrix(0.7064 -0.707813 0.7064 0.707813 895.152 -168.492)" fill="#5225B0" fill-opacity="0.3"/>
<rect width="3.44043" height="550.595" rx="1.72021" transform="matrix(0.7064 -0.707813 0.7064 0.707813 691.527 35.541)" fill="#5225B0" fill-opacity="0.3"/>
<rect width="3.44043" height="550.595" rx="1.72021" transform="matrix(0.7064 -0.707813 0.7064 0.707813 887.879 -161.205)" fill="#5225B0" fill-opacity="0.3"/>
<rect width="3.44043" height="550.595" rx="1.72021" transform="matrix(0.7064 -0.707813 0.7064 0.707813 684.254 42.828)" fill="#5225B0" fill-opacity="0.3"/>
<rect width="3.44043" height="550.595" rx="1.72021" transform="matrix(0.7064 -0.707813 0.7064 0.707813 880.609 -153.918)" fill="#5225B0" fill-opacity="0.3"/>
<rect width="3.44043" height="550.595" rx="1.72021" transform="matrix(0.7064 -0.707813 0.7064 0.707813 676.984 50.1147)" fill="#5225B0" fill-opacity="0.3"/>
<rect width="3.44043" height="550.595" rx="1.72021" transform="matrix(0.7064 -0.707813 0.7064 0.707813 873.336 -146.631)" fill="#5225B0" fill-opacity="0.3"/>
<rect width="3.44043" height="550.595" rx="1.72021" transform="matrix(0.7064 -0.707813 0.7064 0.707813 669.711 57.4017)" fill="#5225B0" fill-opacity="0.3"/>
<rect width="3.44043" height="550.595" rx="1.72021" transform="matrix(0.7064 -0.707813 0.7064 0.707813 866.062 -139.344)" fill="#5225B0" fill-opacity="0.3"/>
<rect width="3.44043" height="550.595" rx="1.72021" transform="matrix(0.7064 -0.707813 0.7064 0.707813 662.438 64.6885)" fill="#5225B0" fill-opacity="0.3"/>
<rect width="3.44043" height="550.595" rx="1.72021" transform="matrix(0.7064 -0.707813 0.7064 0.707813 858.789 -132.057)" fill="#5225B0" fill-opacity="0.3"/>
<rect width="3.44043" height="550.595" rx="1.72021" transform="matrix(0.7064 -0.707813 0.7064 0.707813 655.168 71.9755)" fill="#5225B0" fill-opacity="0.3"/>
<rect width="3.44043" height="550.595" rx="1.72021" transform="matrix(0.7064 -0.707813 0.7064 0.707813 851.52 -124.77)" fill="#5225B0" fill-opacity="0.3"/>
<rect width="3.44043" height="550.595" rx="1.72021" transform="matrix(0.7064 -0.707813 0.7064 0.707813 647.895 79.2622)" fill="#5225B0" fill-opacity="0.3"/>
<rect width="3.44043" height="550.595" rx="1.72021" transform="matrix(0.7064 -0.707813 0.7064 0.707813 844.246 -117.483)" fill="#5225B0" fill-opacity="0.3"/>
<rect width="3.44043" height="550.595" rx="1.72021" transform="matrix(0.7064 -0.707813 0.7064 0.707813 640.621 86.5492)" fill="#5225B0" fill-opacity="0.3"/>
<rect width="3.44043" height="550.595" rx="1.72021" transform="matrix(0.7064 -0.707813 0.7064 0.707813 836.973 -110.197)" fill="#5225B0" fill-opacity="0.3"/>
<rect width="3.44043" height="550.595" rx="1.72021" transform="matrix(0.7064 -0.707813 0.7064 0.707813 633.348 93.8362)" fill="#5225B0" fill-opacity="0.3"/>
<rect width="3.44043" height="550.595" rx="1.72021" transform="matrix(0.7064 -0.707813 0.7064 0.707813 975.148 -248.647)" fill="#5225B0" fill-opacity="0.3"/>
<rect width="3.44043" height="550.595" rx="1.72021" transform="matrix(0.7064 -0.707813 0.7064 0.707813 771.523 -44.6147)" fill="#5225B0" fill-opacity="0.3"/>
<rect width="3.44043" height="550.595" rx="1.72021" transform="matrix(0.7064 -0.707813 0.7064 0.707813 982.422 -255.934)" fill="#5225B0" fill-opacity="0.3"/>
<rect width="3.44043" height="550.595" rx="1.72021" transform="matrix(0.7064 -0.707813 0.7064 0.707813 778.793 -51.9016)" fill="#5225B0" fill-opacity="0.3"/>
<rect width="3.44043" height="550.595" rx="1.72021" transform="matrix(0.7064 -0.707813 0.7064 0.707813 989.691 -263.221)" fill="#5225B0" fill-opacity="0.3"/>
<rect width="3.44043" height="550.595" rx="1.72021" transform="matrix(0.7064 -0.707813 0.7064 0.707813 786.066 -59.1885)" fill="#5225B0" fill-opacity="0.3"/>
<rect width="3.44043" height="550.595" rx="1.72021" transform="matrix(0.7064 -0.707813 0.7064 0.707813 996.965 -270.508)" fill="#5225B0" fill-opacity="0.3"/>
<rect width="3.44043" height="550.595" rx="1.72021" transform="matrix(0.7064 -0.707813 0.7064 0.707813 793.34 -66.4753)" fill="#5225B0" fill-opacity="0.3"/>
<rect width="3.44043" height="550.595" rx="1.72021" transform="matrix(0.7064 -0.707813 0.7064 0.707813 1004.24 -277.795)" fill="#5225B0" fill-opacity="0.3"/>
<rect width="3.44043" height="550.595" rx="1.72021" transform="matrix(0.7064 -0.707813 0.7064 0.707813 800.613 -73.7622)" fill="#5225B0" fill-opacity="0.3"/>
<rect width="3.44043" height="550.595" rx="1.72021" transform="matrix(0.7064 -0.707813 0.7064 0.707813 1011.51 -285.082)" fill="#5225B0" fill-opacity="0.3"/>
<rect width="3.44043" height="550.595" rx="1.72021" transform="matrix(0.7064 -0.707813 0.7064 0.707813 807.883 -81.0491)" fill="#5225B0" fill-opacity="0.3"/>
<rect width="3.44043" height="550.595" rx="1.72021" transform="matrix(0.7064 -0.707813 0.7064 0.707813 1018.78 -292.369)" fill="#5225B0" fill-opacity="0.3"/>
<rect width="3.44043" height="550.595" rx="1.72021" transform="matrix(0.7064 -0.707813 0.7064 0.707813 815.156 -88.3359)" fill="#5225B0" fill-opacity="0.3"/>
<rect width="3.44043" height="550.595" rx="1.72021" transform="matrix(0.7064 -0.707813 0.7064 0.707813 1026.05 -299.656)" fill="#5225B0" fill-opacity="0.3"/>
<rect width="3.44043" height="550.595" rx="1.72021" transform="matrix(0.7064 -0.707813 0.7064 0.707813 822.43 -95.623)" fill="#5225B0" fill-opacity="0.3"/>
<rect width="3.44043" height="550.595" rx="1.72021" transform="matrix(0.7064 -0.707813 0.7064 0.707813 1033.32 -306.942)" fill="#5225B0" fill-opacity="0.3"/>
<rect width="3.44043" height="550.595" rx="1.72021" transform="matrix(0.7064 -0.707813 0.7064 0.707813 829.699 -102.91)" fill="#5225B0" fill-opacity="0.3"/>
</g>
<mask id="mask4_2024_18013" style="mask-type:alpha" maskUnits="userSpaceOnUse" x="778" y="236" width="508" height="512">
<path d="M1023.64 647.675L1187.02 482.997C1197.86 472.093 1212.55 465.97 1227.87 465.97C1243.19 465.97 1257.88 472.093 1268.72 482.997C1279.54 493.926 1285.62 508.734 1285.62 524.172C1285.62 539.61 1279.54 554.418 1268.72 565.347L1105.34 730.025C1094.5 740.929 1079.8 747.052 1064.49 747.052C1049.17 747.052 1034.48 740.929 1023.64 730.025C1012.82 719.096 1006.74 704.288 1006.74 688.85C1006.74 673.412 1012.82 658.604 1023.64 647.675ZM795.562 500.141C806.404 511.038 821.09 517.158 836.402 517.158C851.713 517.158 866.4 511.038 877.242 500.141L1040.65 335.441C1051.46 324.513 1057.53 309.71 1057.53 294.277C1057.53 278.844 1051.46 264.041 1040.65 253.113C1029.8 242.209 1015.11 236.086 999.795 236.086C984.478 236.086 969.787 242.209 958.944 253.113L795.562 417.791C784.743 428.72 778.668 443.528 778.668 458.966C778.668 474.404 784.743 489.212 795.562 500.141ZM970.833 553.299C981.676 564.203 996.367 570.327 1011.68 570.327C1027 570.327 1041.69 564.203 1052.53 553.299L1093.39 512.124C1104.2 501.195 1110.28 486.387 1110.28 470.949C1110.28 455.511 1104.2 440.703 1093.39 429.774C1082.54 418.87 1067.85 412.747 1052.53 412.747C1037.22 412.747 1022.53 418.87 1011.68 429.774L970.833 470.949C960.015 481.878 953.939 496.686 953.939 512.124C953.939 527.562 960.015 542.37 970.833 553.299Z" fill="url(#paint4_linear_2024_18013)"/>
</mask>
<g mask="url(#mask4_2024_18013)">
<rect width="3.44043" height="550.595" rx="1.72021" transform="matrix(0.7064 -0.707813 0.7064 0.707813 916.242 262.385)" fill="#5225B0" fill-opacity="0.3"/>
<rect width="3.44043" height="550.595" rx="1.72021" transform="matrix(0.7064 -0.707813 0.7064 0.707813 712.617 466.417)" fill="#5225B0" fill-opacity="0.3"/>
<rect width="3.44043" height="550.595" rx="1.72021" transform="matrix(0.7064 -0.707813 0.7064 0.707813 908.973 269.671)" fill="#5225B0" fill-opacity="0.3"/>
<rect width="3.44043" height="550.595" rx="1.72021" transform="matrix(0.7064 -0.707813 0.7064 0.707813 705.348 473.704)" fill="#5225B0" fill-opacity="0.3"/>
<rect width="3.44043" height="550.595" rx="1.72021" transform="matrix(0.7064 -0.707813 0.7064 0.707813 901.699 276.958)" fill="#5225B0" fill-opacity="0.3"/>
<rect width="3.44043" height="550.595" rx="1.72021" transform="matrix(0.7064 -0.707813 0.7064 0.707813 698.074 480.991)" fill="#5225B0" fill-opacity="0.3"/>
<rect width="3.44043" height="550.595" rx="1.72021" transform="matrix(0.7064 -0.707813 0.7064 0.707813 894.426 284.245)" fill="#5225B0" fill-opacity="0.3"/>
<rect width="3.44043" height="550.595" rx="1.72021" transform="matrix(0.7064 -0.707813 0.7064 0.707813 690.801 488.278)" fill="#5225B0" fill-opacity="0.3"/>
<rect width="3.44043" height="550.595" rx="1.72021" transform="matrix(0.7064 -0.707813 0.7064 0.707813 887.152 291.532)" fill="#5225B0" fill-opacity="0.3"/>
<rect width="3.44043" height="550.595" rx="1.72021" transform="matrix(0.7064 -0.707813 0.7064 0.707813 683.527 495.565)" fill="#5225B0" fill-opacity="0.3"/>
<rect width="3.44043" height="550.595" rx="1.72021" transform="matrix(0.7064 -0.707813 0.7064 0.707813 879.883 298.819)" fill="#5225B0" fill-opacity="0.3"/>
<rect width="3.44043" height="550.595" rx="1.72021" transform="matrix(0.7064 -0.707813 0.7064 0.707813 676.258 502.851)" fill="#5225B0" fill-opacity="0.3"/>
<rect width="3.44043" height="550.595" rx="1.72021" transform="matrix(0.7064 -0.707813 0.7064 0.707813 872.609 306.106)" fill="#5225B0" fill-opacity="0.3"/>
<rect width="3.44043" height="550.595" rx="1.72021" transform="matrix(0.7064 -0.707813 0.7064 0.707813 668.984 510.138)" fill="#5225B0" fill-opacity="0.3"/>
<rect width="3.44043" height="550.595" rx="1.72021" transform="matrix(0.7064 -0.707813 0.7064 0.707813 865.336 313.392)" fill="#5225B0" fill-opacity="0.3"/>
<rect width="3.44043" height="550.595" rx="1.72021" transform="matrix(0.7064 -0.707813 0.7064 0.707813 661.711 517.425)" fill="#5225B0" fill-opacity="0.3"/>
<rect width="3.44043" height="550.595" rx="1.72021" transform="matrix(0.7064 -0.707813 0.7064 0.707813 858.066 320.679)" fill="#5225B0" fill-opacity="0.3"/>
<rect width="3.44043" height="550.595" rx="1.72021" transform="matrix(0.7064 -0.707813 0.7064 0.707813 654.438 524.712)" fill="#5225B0" fill-opacity="0.3"/>
<rect width="3.44043" height="550.595" rx="1.72021" transform="matrix(0.7064 -0.707813 0.7064 0.707813 850.793 327.966)" fill="#5225B0" fill-opacity="0.3"/>
<rect width="3.44043" height="550.595" rx="1.72021" transform="matrix(0.7064 -0.707813 0.7064 0.707813 647.168 531.999)" fill="#5225B0" fill-opacity="0.3"/>
<rect width="3.44043" height="550.595" rx="1.72021" transform="matrix(0.7064 -0.707813 0.7064 0.707813 843.52 335.253)" fill="#5225B0" fill-opacity="0.3"/>
<rect width="3.44043" height="550.595" rx="1.72021" transform="matrix(0.7064 -0.707813 0.7064 0.707813 639.895 539.286)" fill="#5225B0" fill-opacity="0.3"/>
<rect width="3.44043" height="550.595" rx="1.72021" transform="matrix(0.7064 -0.707813 0.7064 0.707813 836.246 342.54)" fill="#5225B0" fill-opacity="0.3"/>
<rect width="3.44043" height="550.595" rx="1.72021" transform="matrix(0.7064 -0.707813 0.7064 0.707813 632.621 546.573)" fill="#5225B0" fill-opacity="0.3"/>
<rect width="3.44043" height="550.595" rx="1.72021" transform="matrix(0.7064 -0.707813 0.7064 0.707813 828.977 349.827)" fill="#5225B0" fill-opacity="0.3"/>
<rect width="3.44043" height="550.595" rx="1.72021" transform="matrix(0.7064 -0.707813 0.7064 0.707813 625.352 553.86)" fill="#5225B0" fill-opacity="0.3"/>
<rect width="3.44043" height="550.595" rx="1.72021" transform="matrix(0.7064 -0.707813 0.7064 0.707813 821.703 357.114)" fill="#5225B0" fill-opacity="0.3"/>
<rect width="3.44043" height="550.595" rx="1.72021" transform="matrix(0.7064 -0.707813 0.7064 0.707813 618.078 561.147)" fill="#5225B0" fill-opacity="0.3"/>
<rect width="3.44043" height="550.595" rx="1.72021" transform="matrix(0.7064 -0.707813 0.7064 0.707813 814.43 364.401)" fill="#5225B0" fill-opacity="0.3"/>
<rect width="3.44043" height="550.595" rx="1.72021" transform="matrix(0.7064 -0.707813 0.7064 0.707813 610.805 568.433)" fill="#5225B0" fill-opacity="0.3"/>
<rect width="3.44043" height="550.595" rx="1.72021" transform="matrix(0.7064 -0.707813 0.7064 0.707813 807.156 371.688)" fill="#5225B0" fill-opacity="0.3"/>
<rect width="3.44043" height="550.595" rx="1.72021" transform="matrix(0.7064 -0.707813 0.7064 0.707813 603.535 575.72)" fill="#5225B0" fill-opacity="0.3"/>
<rect width="3.44043" height="550.595" rx="1.72021" transform="matrix(0.7064 -0.707813 0.7064 0.707813 799.887 378.975)" fill="#5225B0" fill-opacity="0.3"/>
<rect width="3.44043" height="550.595" rx="1.72021" transform="matrix(0.7064 -0.707813 0.7064 0.707813 596.262 583.007)" fill="#5225B0" fill-opacity="0.3"/>
<rect width="3.44043" height="550.595" rx="1.72021" transform="matrix(0.7064 -0.707813 0.7064 0.707813 792.613 386.261)" fill="#5225B0" fill-opacity="0.3"/>
<rect width="3.44043" height="550.595" rx="1.72021" transform="matrix(0.7064 -0.707813 0.7064 0.707813 588.988 590.294)" fill="#5225B0" fill-opacity="0.3"/>
<rect width="3.44043" height="550.595" rx="1.72021" transform="matrix(0.7064 -0.707813 0.7064 0.707813 785.34 393.548)" fill="#5225B0" fill-opacity="0.3"/>
<rect width="3.44043" height="550.595" rx="1.72021" transform="matrix(0.7064 -0.707813 0.7064 0.707813 581.715 597.581)" fill="#5225B0" fill-opacity="0.3"/>
<rect width="3.44043" height="550.595" rx="1.72021" transform="matrix(0.7064 -0.707813 0.7064 0.707813 923.516 255.098)" fill="#5225B0" fill-opacity="0.3"/>
<rect width="3.44043" height="550.595" rx="1.72021" transform="matrix(0.7064 -0.707813 0.7064 0.707813 719.891 459.13)" fill="#5225B0" fill-opacity="0.3"/>
<rect width="3.44043" height="550.595" rx="1.72021" transform="matrix(0.7064 -0.707813 0.7064 0.707813 930.789 247.811)" fill="#5225B0" fill-opacity="0.3"/>
<rect width="3.44043" height="550.595" rx="1.72021" transform="matrix(0.7064 -0.707813 0.7064 0.707813 727.16 451.843)" fill="#5225B0" fill-opacity="0.3"/>
<rect width="3.44043" height="550.595" rx="1.72021" transform="matrix(0.7064 -0.707813 0.7064 0.707813 938.059 240.524)" fill="#5225B0" fill-opacity="0.3"/>
<rect width="3.44043" height="550.595" rx="1.72021" transform="matrix(0.7064 -0.707813 0.7064 0.707813 734.434 444.556)" fill="#5225B0" fill-opacity="0.3"/>
<rect width="3.44043" height="550.595" rx="1.72021" transform="matrix(0.7064 -0.707813 0.7064 0.707813 945.332 233.237)" fill="#5225B0" fill-opacity="0.3"/>
<rect width="3.44043" height="550.595" rx="1.72021" transform="matrix(0.7064 -0.707813 0.7064 0.707813 741.707 437.27)" fill="#5225B0" fill-opacity="0.3"/>
<rect width="3.44043" height="550.595" rx="1.72021" transform="matrix(0.7064 -0.707813 0.7064 0.707813 952.605 225.95)" fill="#5225B0" fill-opacity="0.3"/>
<rect width="3.44043" height="550.595" rx="1.72021" transform="matrix(0.7064 -0.707813 0.7064 0.707813 748.98 429.983)" fill="#5225B0" fill-opacity="0.3"/>
<rect width="3.44043" height="550.595" rx="1.72021" transform="matrix(0.7064 -0.707813 0.7064 0.707813 959.875 218.663)" fill="#5225B0" fill-opacity="0.3"/>
<rect width="3.44043" height="550.595" rx="1.72021" transform="matrix(0.7064 -0.707813 0.7064 0.707813 756.25 422.696)" fill="#5225B0" fill-opacity="0.3"/>
<rect width="3.44043" height="550.595" rx="1.72021" transform="matrix(0.7064 -0.707813 0.7064 0.707813 967.148 211.376)" fill="#5225B0" fill-opacity="0.3"/>
<rect width="3.44043" height="550.595" rx="1.72021" transform="matrix(0.7064 -0.707813 0.7064 0.707813 763.523 415.409)" fill="#5225B0" fill-opacity="0.3"/>
<rect width="3.44043" height="550.595" rx="1.72021" transform="matrix(0.7064 -0.707813 0.7064 0.707813 974.422 204.089)" fill="#5225B0" fill-opacity="0.3"/>
<rect width="3.44043" height="550.595" rx="1.72021" transform="matrix(0.7064 -0.707813 0.7064 0.707813 770.797 408.122)" fill="#5225B0" fill-opacity="0.3"/>
<rect width="3.44043" height="550.595" rx="1.72021" transform="matrix(0.7064 -0.707813 0.7064 0.707813 981.691 196.803)" fill="#5225B0" fill-opacity="0.3"/>
<rect width="3.44043" height="550.595" rx="1.72021" transform="matrix(0.7064 -0.707813 0.7064 0.707813 778.066 400.835)" fill="#5225B0" fill-opacity="0.3"/>
</g>
<mask id="mask5_2024_18013" style="mask-type:alpha" maskUnits="userSpaceOnUse" x="1111" y="159" width="508" height="512">
<path d="M1356.67 571.125L1520.05 406.447C1530.89 395.543 1545.59 389.419 1560.9 389.419C1576.22 389.419 1590.91 395.543 1601.75 406.447C1612.57 417.376 1618.65 432.184 1618.65 447.622C1618.65 463.06 1612.57 477.868 1601.75 488.797L1438.37 653.474C1427.53 664.378 1412.84 670.502 1397.52 670.502C1382.2 670.502 1367.51 664.378 1356.67 653.474C1345.85 642.546 1339.77 627.738 1339.77 612.3C1339.77 596.861 1345.85 582.054 1356.67 571.125ZM1128.59 423.59C1139.43 434.488 1154.12 440.607 1169.43 440.607C1184.74 440.607 1199.43 434.488 1210.27 423.59L1373.68 258.891C1384.49 247.963 1390.56 233.16 1390.56 217.727C1390.56 202.294 1384.49 187.491 1373.68 176.563C1362.83 165.659 1348.14 159.535 1332.83 159.535C1317.51 159.535 1302.82 165.659 1291.98 176.563L1128.59 341.241C1117.77 352.17 1111.7 366.977 1111.7 382.416C1111.7 397.854 1117.77 412.661 1128.59 423.59ZM1303.86 476.749C1314.71 487.652 1329.4 493.776 1344.72 493.776C1360.03 493.776 1374.72 487.652 1385.57 476.749L1426.42 435.574C1437.24 424.645 1443.31 409.837 1443.31 394.399C1443.31 378.961 1437.24 364.153 1426.42 353.224C1415.57 342.32 1400.88 336.196 1385.57 336.196C1370.25 336.196 1355.56 342.32 1344.72 353.224L1303.86 394.399C1293.05 405.328 1286.97 420.136 1286.97 435.574C1286.97 451.012 1293.05 465.82 1303.86 476.749Z" fill="url(#paint5_linear_2024_18013)"/>
</mask>
<g mask="url(#mask5_2024_18013)">
<rect width="3.44043" height="550.595" rx="1.72021" transform="matrix(0.7064 -0.707813 0.7064 0.707813 1249.27 185.834)" fill="#5225B0" fill-opacity="0.3"/>
<rect width="3.44043" height="550.595" rx="1.72021" transform="matrix(0.7064 -0.707813 0.7064 0.707813 1045.65 389.867)" fill="#5225B0" fill-opacity="0.3"/>
<rect width="3.44043" height="550.595" rx="1.72021" transform="matrix(0.7064 -0.707813 0.7064 0.707813 1242 193.121)" fill="#5225B0" fill-opacity="0.3"/>
<rect width="3.44043" height="550.595" rx="1.72021" transform="matrix(0.7064 -0.707813 0.7064 0.707813 1038.38 397.154)" fill="#5225B0" fill-opacity="0.3"/>
<rect width="3.44043" height="550.595" rx="1.72021" transform="matrix(0.7064 -0.707813 0.7064 0.707813 1234.73 200.408)" fill="#5225B0" fill-opacity="0.3"/>
<rect width="3.44043" height="550.595" rx="1.72021" transform="matrix(0.7064 -0.707813 0.7064 0.707813 1031.11 404.44)" fill="#5225B0" fill-opacity="0.3"/>
<rect width="3.44043" height="550.595" rx="1.72021" transform="matrix(0.7064 -0.707813 0.7064 0.707813 1227.46 207.694)" fill="#5225B0" fill-opacity="0.3"/>
<rect width="3.44043" height="550.595" rx="1.72021" transform="matrix(0.7064 -0.707813 0.7064 0.707813 1023.83 411.727)" fill="#5225B0" fill-opacity="0.3"/>
<rect width="3.44043" height="550.595" rx="1.72021" transform="matrix(0.7064 -0.707813 0.7064 0.707813 1220.18 214.981)" fill="#5225B0" fill-opacity="0.3"/>
<rect width="3.44043" height="550.595" rx="1.72021" transform="matrix(0.7064 -0.707813 0.7064 0.707813 1016.56 419.014)" fill="#5225B0" fill-opacity="0.3"/>
<rect width="3.44043" height="550.595" rx="1.72021" transform="matrix(0.7064 -0.707813 0.7064 0.707813 1212.91 222.268)" fill="#5225B0" fill-opacity="0.3"/>
<rect width="3.44043" height="550.595" rx="1.72021" transform="matrix(0.7064 -0.707813 0.7064 0.707813 1009.29 426.301)" fill="#5225B0" fill-opacity="0.3"/>
<rect width="3.44043" height="550.595" rx="1.72021" transform="matrix(0.7064 -0.707813 0.7064 0.707813 1205.64 229.555)" fill="#5225B0" fill-opacity="0.3"/>
<rect width="3.44043" height="550.595" rx="1.72021" transform="matrix(0.7064 -0.707813 0.7064 0.707813 1002.02 433.588)" fill="#5225B0" fill-opacity="0.3"/>
<rect width="3.44043" height="550.595" rx="1.72021" transform="matrix(0.7064 -0.707813 0.7064 0.707813 1198.37 236.842)" fill="#5225B0" fill-opacity="0.3"/>
<rect width="3.44043" height="550.595" rx="1.72021" transform="matrix(0.7064 -0.707813 0.7064 0.707813 994.742 440.875)" fill="#5225B0" fill-opacity="0.3"/>
<rect width="3.44043" height="550.595" rx="1.72021" transform="matrix(0.7064 -0.707813 0.7064 0.707813 1191.09 244.129)" fill="#5225B0" fill-opacity="0.3"/>
<rect width="3.44043" height="550.595" rx="1.72021" transform="matrix(0.7064 -0.707813 0.7064 0.707813 987.469 448.162)" fill="#5225B0" fill-opacity="0.3"/>
<rect width="3.44043" height="550.595" rx="1.72021" transform="matrix(0.7064 -0.707813 0.7064 0.707813 1183.82 251.416)" fill="#5225B0" fill-opacity="0.3"/>
<rect width="3.44043" height="550.595" rx="1.72021" transform="matrix(0.7064 -0.707813 0.7064 0.707813 980.199 455.448)" fill="#5225B0" fill-opacity="0.3"/>
<rect width="3.44043" height="550.595" rx="1.72021" transform="matrix(0.7064 -0.707813 0.7064 0.707813 1176.55 258.703)" fill="#5225B0" fill-opacity="0.3"/>
<rect width="3.44043" height="550.595" rx="1.72021" transform="matrix(0.7064 -0.707813 0.7064 0.707813 972.926 462.735)" fill="#5225B0" fill-opacity="0.3"/>
<rect width="3.44043" height="550.595" rx="1.72021" transform="matrix(0.7064 -0.707813 0.7064 0.707813 1169.28 265.99)" fill="#5225B0" fill-opacity="0.3"/>
<rect width="3.44043" height="550.595" rx="1.72021" transform="matrix(0.7064 -0.707813 0.7064 0.707813 965.652 470.022)" fill="#5225B0" fill-opacity="0.3"/>
<rect width="3.44043" height="550.595" rx="1.72021" transform="matrix(0.7064 -0.707813 0.7064 0.707813 1162.01 273.276)" fill="#5225B0" fill-opacity="0.3"/>
<rect width="3.44043" height="550.595" rx="1.72021" transform="matrix(0.7064 -0.707813 0.7064 0.707813 958.383 477.309)" fill="#5225B0" fill-opacity="0.3"/>
<rect width="3.44043" height="550.595" rx="1.72021" transform="matrix(0.7064 -0.707813 0.7064 0.707813 1154.73 280.563)" fill="#5225B0" fill-opacity="0.3"/>
<rect width="3.44043" height="550.595" rx="1.72021" transform="matrix(0.7064 -0.707813 0.7064 0.707813 951.109 484.596)" fill="#5225B0" fill-opacity="0.3"/>
<rect width="3.44043" height="550.595" rx="1.72021" transform="matrix(0.7064 -0.707813 0.7064 0.707813 1147.46 287.85)" fill="#5225B0" fill-opacity="0.3"/>
<rect width="3.44043" height="550.595" rx="1.72021" transform="matrix(0.7064 -0.707813 0.7064 0.707813 943.836 491.883)" fill="#5225B0" fill-opacity="0.3"/>
<rect width="3.44043" height="550.595" rx="1.72021" transform="matrix(0.7064 -0.707813 0.7064 0.707813 1140.19 295.137)" fill="#5225B0" fill-opacity="0.3"/>
<rect width="3.44043" height="550.595" rx="1.72021" transform="matrix(0.7064 -0.707813 0.7064 0.707813 936.562 499.17)" fill="#5225B0" fill-opacity="0.3"/>
<rect width="3.44043" height="550.595" rx="1.72021" transform="matrix(0.7064 -0.707813 0.7064 0.707813 1132.92 302.424)" fill="#5225B0" fill-opacity="0.3"/>
<rect width="3.44043" height="550.595" rx="1.72021" transform="matrix(0.7064 -0.707813 0.7064 0.707813 929.293 506.457)" fill="#5225B0" fill-opacity="0.3"/>
<rect width="3.44043" height="550.595" rx="1.72021" transform="matrix(0.7064 -0.707813 0.7064 0.707813 1125.64 309.711)" fill="#5225B0" fill-opacity="0.3"/>
<rect width="3.44043" height="550.595" rx="1.72021" transform="matrix(0.7064 -0.707813 0.7064 0.707813 922.02 513.744)" fill="#5225B0" fill-opacity="0.3"/>
<rect width="3.44043" height="550.595" rx="1.72021" transform="matrix(0.7064 -0.707813 0.7064 0.707813 1118.37 316.998)" fill="#5225B0" fill-opacity="0.3"/>
<rect width="3.44043" height="550.595" rx="1.72021" transform="matrix(0.7064 -0.707813 0.7064 0.707813 914.746 521.031)" fill="#5225B0" fill-opacity="0.3"/>
<rect width="3.44043" height="550.595" rx="1.72021" transform="matrix(0.7064 -0.707813 0.7064 0.707813 1256.55 178.547)" fill="#5225B0" fill-opacity="0.3"/>
<rect width="3.44043" height="550.595" rx="1.72021" transform="matrix(0.7064 -0.707813 0.7064 0.707813 1052.92 382.58)" fill="#5225B0" fill-opacity="0.3"/>
<rect width="3.44043" height="550.595" rx="1.72021" transform="matrix(0.7064 -0.707813 0.7064 0.707813 1263.82 171.26)" fill="#5225B0" fill-opacity="0.3"/>
<rect width="3.44043" height="550.595" rx="1.72021" transform="matrix(0.7064 -0.707813 0.7064 0.707813 1060.19 375.293)" fill="#5225B0" fill-opacity="0.3"/>
<rect width="3.44043" height="550.595" rx="1.72021" transform="matrix(0.7064 -0.707813 0.7064 0.707813 1271.09 163.973)" fill="#5225B0" fill-opacity="0.3"/>
<rect width="3.44043" height="550.595" rx="1.72021" transform="matrix(0.7064 -0.707813 0.7064 0.707813 1067.46 368.006)" fill="#5225B0" fill-opacity="0.3"/>
<rect width="3.44043" height="550.595" rx="1.72021" transform="matrix(0.7064 -0.707813 0.7064 0.707813 1278.36 156.686)" fill="#5225B0" fill-opacity="0.3"/>
<rect width="3.44043" height="550.595" rx="1.72021" transform="matrix(0.7064 -0.707813 0.7064 0.707813 1074.74 360.719)" fill="#5225B0" fill-opacity="0.3"/>
<rect width="3.44043" height="550.595" rx="1.72021" transform="matrix(0.7064 -0.707813 0.7064 0.707813 1285.64 149.4)" fill="#5225B0" fill-opacity="0.3"/>
<rect width="3.44043" height="550.595" rx="1.72021" transform="matrix(0.7064 -0.707813 0.7064 0.707813 1082.01 353.432)" fill="#5225B0" fill-opacity="0.3"/>
<rect width="3.44043" height="550.595" rx="1.72021" transform="matrix(0.7064 -0.707813 0.7064 0.707813 1292.91 142.113)" fill="#5225B0" fill-opacity="0.3"/>
<rect width="3.44043" height="550.595" rx="1.72021" transform="matrix(0.7064 -0.707813 0.7064 0.707813 1089.28 346.145)" fill="#5225B0" fill-opacity="0.3"/>
<rect width="3.44043" height="550.595" rx="1.72021" transform="matrix(0.7064 -0.707813 0.7064 0.707813 1300.18 134.826)" fill="#5225B0" fill-opacity="0.3"/>
<rect width="3.44043" height="550.595" rx="1.72021" transform="matrix(0.7064 -0.707813 0.7064 0.707813 1096.55 338.858)" fill="#5225B0" fill-opacity="0.3"/>
<rect width="3.44043" height="550.595" rx="1.72021" transform="matrix(0.7064 -0.707813 0.7064 0.707813 1307.45 127.539)" fill="#5225B0" fill-opacity="0.3"/>
<rect width="3.44043" height="550.595" rx="1.72021" transform="matrix(0.7064 -0.707813 0.7064 0.707813 1103.83 331.571)" fill="#5225B0" fill-opacity="0.3"/>
<rect width="3.44043" height="550.595" rx="1.72021" transform="matrix(0.7064 -0.707813 0.7064 0.707813 1314.72 120.252)" fill="#5225B0" fill-opacity="0.3"/>
<rect width="3.44043" height="550.595" rx="1.72021" transform="matrix(0.7064 -0.707813 0.7064 0.707813 1111.1 324.285)" fill="#5225B0" fill-opacity="0.3"/>
</g>
<mask id="mask6_2024_18013" style="mask-type:alpha" maskUnits="userSpaceOnUse" x="1052" y="670" width="508" height="512">
<path d="M1297.32 1082.03L1460.7 917.351C1471.55 906.447 1486.24 900.323 1501.55 900.323C1516.87 900.323 1531.56 906.447 1542.41 917.351C1553.22 928.28 1559.3 943.087 1559.3 958.526C1559.3 973.964 1553.22 988.771 1542.41 999.7L1379.02 1164.38C1368.18 1175.28 1353.49 1181.41 1338.17 1181.41C1322.86 1181.41 1308.16 1175.28 1297.32 1164.38C1286.5 1153.45 1280.43 1138.64 1280.43 1123.2C1280.43 1107.77 1286.5 1092.96 1297.32 1082.03ZM1069.25 934.494C1080.09 945.392 1094.77 951.511 1110.09 951.511C1125.4 951.511 1140.08 945.392 1150.93 934.494L1314.33 769.795C1325.14 758.867 1331.21 744.064 1331.21 728.631C1331.21 713.198 1325.14 698.395 1314.33 687.467C1303.49 676.563 1288.8 670.439 1273.48 670.439C1258.16 670.439 1243.47 676.563 1232.63 687.467L1069.25 852.145C1058.43 863.073 1052.35 877.881 1052.35 893.319C1052.35 908.758 1058.43 923.565 1069.25 934.494ZM1244.52 987.652C1255.36 998.556 1270.05 1004.68 1285.37 1004.68C1300.68 1004.68 1315.38 998.556 1326.22 987.652L1367.07 946.477C1377.89 935.549 1383.96 920.741 1383.96 905.303C1383.96 889.864 1377.89 875.057 1367.07 864.128C1356.23 853.224 1341.54 847.1 1326.22 847.1C1310.9 847.1 1296.21 853.224 1285.37 864.128L1244.52 905.303C1233.7 916.232 1227.62 931.039 1227.62 946.477C1227.62 961.916 1233.7 976.723 1244.52 987.652Z" fill="url(#paint6_linear_2024_18013)"/>
</mask>
<g mask="url(#mask6_2024_18013)">
<rect width="3.44043" height="550.595" rx="1.72021" transform="matrix(0.7064 -0.707813 0.7064 0.707813 1189.93 696.738)" fill="#5225B0" fill-opacity="0.3"/>
<rect width="3.44043" height="550.595" rx="1.72021" transform="matrix(0.7064 -0.707813 0.7064 0.707813 1182.65 704.025)" fill="#5225B0" fill-opacity="0.3"/>
<rect width="3.44043" height="550.595" rx="1.72021" transform="matrix(0.7064 -0.707813 0.7064 0.707813 1175.38 711.312)" fill="#5225B0" fill-opacity="0.3"/>
<rect width="3.44043" height="550.595" rx="1.72021" transform="matrix(0.7064 -0.707813 0.7064 0.707813 1168.11 718.598)" fill="#5225B0" fill-opacity="0.3"/>
<rect width="3.44043" height="550.595" rx="1.72021" transform="matrix(0.7064 -0.707813 0.7064 0.707813 1160.84 725.885)" fill="#5225B0" fill-opacity="0.3"/>
<rect width="3.44043" height="550.595" rx="1.72021" transform="matrix(0.7064 -0.707813 0.7064 0.707813 1153.57 733.172)" fill="#5225B0" fill-opacity="0.3"/>
<rect width="3.44043" height="550.595" rx="1.72021" transform="matrix(0.7064 -0.707813 0.7064 0.707813 1146.29 740.459)" fill="#5225B0" fill-opacity="0.3"/>
<rect width="3.44043" height="550.595" rx="1.72021" transform="matrix(0.7064 -0.707813 0.7064 0.707813 1139.02 747.746)" fill="#5225B0" fill-opacity="0.3"/>
<rect width="3.44043" height="550.595" rx="1.72021" transform="matrix(0.7064 -0.707813 0.7064 0.707813 1131.75 755.033)" fill="#5225B0" fill-opacity="0.3"/>
<rect width="3.44043" height="550.595" rx="1.72021" transform="matrix(0.7064 -0.707813 0.7064 0.707813 1124.48 762.32)" fill="#5225B0" fill-opacity="0.3"/>
<rect width="3.44043" height="550.595" rx="1.72021" transform="matrix(0.7064 -0.707813 0.7064 0.707813 1117.2 769.607)" fill="#5225B0" fill-opacity="0.3"/>
<rect width="3.44043" height="550.595" rx="1.72021" transform="matrix(0.7064 -0.707813 0.7064 0.707813 1109.93 776.893)" fill="#5225B0" fill-opacity="0.3"/>
<rect width="3.44043" height="550.595" rx="1.72021" transform="matrix(0.7064 -0.707813 0.7064 0.707813 1102.66 784.18)" fill="#5225B0" fill-opacity="0.3"/>
<rect width="3.44043" height="550.595" rx="1.72021" transform="matrix(0.7064 -0.707813 0.7064 0.707813 1095.39 791.467)" fill="#5225B0" fill-opacity="0.3"/>
<rect width="3.44043" height="550.595" rx="1.72021" transform="matrix(0.7064 -0.707813 0.7064 0.707813 1088.11 798.754)" fill="#5225B0" fill-opacity="0.3"/>
<rect width="3.44043" height="550.595" rx="1.72021" transform="matrix(0.7064 -0.707813 0.7064 0.707813 1197.2 689.451)" fill="#5225B0" fill-opacity="0.3"/>
<rect width="3.44043" height="550.595" rx="1.72021" transform="matrix(0.7064 -0.707813 0.7064 0.707813 1204.47 682.164)" fill="#5225B0" fill-opacity="0.3"/>
<rect width="3.44043" height="550.595" rx="1.72021" transform="matrix(0.7064 -0.707813 0.7064 0.707813 1211.74 674.877)" fill="#5225B0" fill-opacity="0.3"/>
<rect width="3.44043" height="550.595" rx="1.72021" transform="matrix(0.7064 -0.707813 0.7064 0.707813 1219.02 667.59)" fill="#5225B0" fill-opacity="0.3"/>
<rect width="3.44043" height="550.595" rx="1.72021" transform="matrix(0.7064 -0.707813 0.7064 0.707813 1226.29 660.303)" fill="#5225B0" fill-opacity="0.3"/>
<rect width="3.44043" height="550.595" rx="1.72021" transform="matrix(0.7064 -0.707813 0.7064 0.707813 1233.56 653.017)" fill="#5225B0" fill-opacity="0.3"/>
<rect width="3.44043" height="550.595" rx="1.72021" transform="matrix(0.7064 -0.707813 0.7064 0.707813 1240.83 645.73)" fill="#5225B0" fill-opacity="0.3"/>
<rect width="3.44043" height="550.595" rx="1.72021" transform="matrix(0.7064 -0.707813 0.7064 0.707813 1248.11 638.443)" fill="#5225B0" fill-opacity="0.3"/>
<rect width="3.44043" height="550.595" rx="1.72021" transform="matrix(0.7064 -0.707813 0.7064 0.707813 1255.38 631.156)" fill="#5225B0" fill-opacity="0.3"/>
</g>
<mask id="mask7_2024_18013" style="mask-type:alpha" maskUnits="userSpaceOnUse" x="708" y="758" width="508" height="512">
<path d="M953.278 1169.76L1116.66 1005.08C1127.5 994.178 1142.19 988.054 1157.51 988.054C1172.83 988.054 1187.52 994.178 1198.36 1005.08C1209.18 1016.01 1215.26 1030.82 1215.26 1046.26C1215.26 1061.69 1209.18 1076.5 1198.36 1087.43L1034.98 1252.11C1024.14 1263.01 1009.45 1269.14 994.129 1269.14C978.812 1269.14 964.121 1263.01 953.278 1252.11C942.46 1241.18 936.384 1226.37 936.384 1210.93C936.384 1195.5 942.46 1180.69 953.278 1169.76ZM725.202 1022.23C736.044 1033.12 750.731 1039.24 766.042 1039.24C781.354 1039.24 796.041 1033.12 806.883 1022.23L970.287 857.526C981.098 846.598 987.169 831.794 987.169 816.362C987.169 800.929 981.098 786.126 970.287 775.197C959.444 764.294 944.752 758.17 929.436 758.17C914.119 758.17 899.428 764.294 888.585 775.197L725.202 939.875C714.384 950.804 708.309 965.612 708.309 981.05C708.309 996.488 714.384 1011.3 725.202 1022.23ZM900.474 1075.38C911.317 1086.29 926.008 1092.41 941.325 1092.41C956.641 1092.41 971.333 1086.29 982.176 1075.38L1023.03 1034.21C1033.84 1023.28 1039.92 1008.47 1039.92 993.033C1039.92 977.595 1033.84 962.788 1023.03 951.859C1012.18 940.955 997.492 934.831 982.176 934.831C966.859 934.831 952.167 940.955 941.325 951.859L900.474 993.033C889.655 1003.96 883.58 1018.77 883.58 1034.21C883.58 1049.65 889.655 1064.45 900.474 1075.38Z" fill="url(#paint7_linear_2024_18013)"/>
</mask>
<g mask="url(#mask7_2024_18013)">
<rect width="3.44043" height="550.595" rx="1.72021" transform="matrix(0.7064 -0.707813 0.7064 0.707813 845.883 784.469)" fill="#5225B0" fill-opacity="0.3"/>
<rect width="3.44043" height="550.595" rx="1.72021" transform="matrix(0.7064 -0.707813 0.7064 0.707813 838.613 791.755)" fill="#5225B0" fill-opacity="0.3"/>
<rect width="3.44043" height="550.595" rx="1.72021" transform="matrix(0.7064 -0.707813 0.7064 0.707813 831.34 799.042)" fill="#5225B0" fill-opacity="0.3"/>
<rect width="3.44043" height="550.595" rx="1.72021" transform="matrix(0.7064 -0.707813 0.7064 0.707813 853.156 777.182)" fill="#5225B0" fill-opacity="0.3"/>
<rect width="3.44043" height="550.595" rx="1.72021" transform="matrix(0.7064 -0.707813 0.7064 0.707813 860.43 769.895)" fill="#5225B0" fill-opacity="0.3"/>
<rect width="3.44043" height="550.595" rx="1.72021" transform="matrix(0.7064 -0.707813 0.7064 0.707813 867.699 762.608)" fill="#5225B0" fill-opacity="0.3"/>
<rect width="3.44043" height="550.595" rx="1.72021" transform="matrix(0.7064 -0.707813 0.7064 0.707813 874.973 755.321)" fill="#5225B0" fill-opacity="0.3"/>
<rect width="3.44043" height="550.595" rx="1.72021" transform="matrix(0.7064 -0.707813 0.7064 0.707813 882.246 748.034)" fill="#5225B0" fill-opacity="0.3"/>
<rect width="3.44043" height="550.595" rx="1.72021" transform="matrix(0.7064 -0.707813 0.7064 0.707813 889.516 740.747)" fill="#5225B0" fill-opacity="0.3"/>
<rect width="3.44043" height="550.595" rx="1.72021" transform="matrix(0.7064 -0.707813 0.7064 0.707813 896.789 733.46)" fill="#5225B0" fill-opacity="0.3"/>
<rect width="3.44043" height="550.595" rx="1.72021" transform="matrix(0.7064 -0.707813 0.7064 0.707813 904.062 726.173)" fill="#5225B0" fill-opacity="0.3"/>
<rect width="3.44043" height="550.595" rx="1.72021" transform="matrix(0.7064 -0.707813 0.7064 0.707813 911.332 718.887)" fill="#5225B0" fill-opacity="0.3"/>
</g>
<rect width="1436.83" height="799.189" fill="url(#paint8_linear_2024_18013)"/>
</g>
<defs>
<linearGradient id="paint0_linear_2024_18013" x1="160.246" y1="-95.616" x2="668.664" y2="413.099" gradientUnits="userSpaceOnUse">
<stop stop-color="#DA1157"/>
<stop offset="0.5" stop-color="#6E2EF4"/>
<stop offset="1" stop-color="#2C6FF6"/>
</linearGradient>
<linearGradient id="paint1_linear_2024_18013" x1="429.461" y1="315.515" x2="937.879" y2="824.23" gradientUnits="userSpaceOnUse">
<stop stop-color="#DA1157"/>
<stop offset="0.5" stop-color="#6E2EF4"/>
<stop offset="1" stop-color="#2C6FF6"/>
</linearGradient>
<linearGradient id="paint2_linear_2024_18013" x1="487.344" y1="-181.412" x2="995.762" y2="327.303" gradientUnits="userSpaceOnUse">
<stop stop-color="#DA1157"/>
<stop offset="0.5" stop-color="#6E2EF4"/>
<stop offset="1" stop-color="#2C6FF6"/>
</linearGradient>
<linearGradient id="paint3_linear_2024_18013" x1="830.301" y1="-267.659" x2="1338.72" y2="241.056" gradientUnits="userSpaceOnUse">
<stop stop-color="#DA1157"/>
<stop offset="0.5" stop-color="#6E2EF4"/>
<stop offset="1" stop-color="#2C6FF6"/>
</linearGradient>
<linearGradient id="paint4_linear_2024_18013" x1="778.668" y1="236.086" x2="1287.09" y2="744.801" gradientUnits="userSpaceOnUse">
<stop stop-color="#DA1157"/>
<stop offset="0.5" stop-color="#6E2EF4"/>
<stop offset="1" stop-color="#2C6FF6"/>
</linearGradient>
<linearGradient id="paint5_linear_2024_18013" x1="1111.7" y1="159.535" x2="1620.12" y2="668.25" gradientUnits="userSpaceOnUse">
<stop stop-color="#DA1157"/>
<stop offset="0.5" stop-color="#6E2EF4"/>
<stop offset="1" stop-color="#2C6FF6"/>
</linearGradient>
<linearGradient id="paint6_linear_2024_18013" x1="1052.35" y1="670.439" x2="1560.77" y2="1179.15" gradientUnits="userSpaceOnUse">
<stop stop-color="#DA1157"/>
<stop offset="0.5" stop-color="#6E2EF4"/>
<stop offset="1" stop-color="#2C6FF6"/>
</linearGradient>
<linearGradient id="paint7_linear_2024_18013" x1="708.309" y1="758.17" x2="1216.73" y2="1266.88" gradientUnits="userSpaceOnUse">
<stop stop-color="#DA1157"/>
<stop offset="0.5" stop-color="#6E2EF4"/>
<stop offset="1" stop-color="#2C6FF6"/>
</linearGradient>
<linearGradient id="paint8_linear_2024_18013" x1="1.32436e-06" y1="380.446" x2="1366.57" y2="380.446" gradientUnits="userSpaceOnUse">
<stop stop-color="white"/>
<stop offset="1" stop-color="white" stop-opacity="0"/>
</linearGradient>
<clipPath id="clip0_2024_18013">
<rect width="1370" height="799" fill="white"/>
</clipPath>
</defs>
</svg>
